<?xml version="1.0" encoding="UTF-8"?>
<svg id="Capa_1" data-name="Capa 1" xmlns="http://www.w3.org/2000/svg" xmlns:xlink="http://www.w3.org/1999/xlink" viewBox="0 0 1062.99 2301.73">
  <defs>
    <style>
      .cls-1 {
        stroke-width: 7.56px;
      }

      .cls-1, .cls-2, .cls-3, .cls-4, .cls-5, .cls-6, .cls-7, .cls-8, .cls-9, .cls-10, .cls-11, .cls-12, .cls-13, .cls-14, .cls-15, .cls-16, .cls-17, .cls-18, .cls-19, .cls-20, .cls-21, .cls-22, .cls-23, .cls-24, .cls-25, .cls-26, .cls-27, .cls-28, .cls-29, .cls-30, .cls-31, .cls-32, .cls-33, .cls-34, .cls-35 {
        fill: none;
      }

      .cls-1, .cls-2, .cls-3, .cls-5, .cls-8, .cls-12, .cls-13, .cls-15, .cls-16, .cls-18, .cls-19, .cls-20, .cls-29, .cls-30, .cls-31, .cls-32, .cls-34, .cls-35 {
        stroke-linecap: round;
      }

      .cls-1, .cls-3, .cls-36, .cls-4, .cls-5, .cls-6, .cls-7, .cls-8, .cls-10, .cls-14, .cls-17, .cls-21, .cls-22, .cls-23, .cls-37, .cls-38, .cls-33, .cls-34 {
        stroke: #1d1d20;
      }

      .cls-1, .cls-36, .cls-4, .cls-6, .cls-7, .cls-8, .cls-10, .cls-12, .cls-14, .cls-16, .cls-17, .cls-19, .cls-21, .cls-22, .cls-23, .cls-37, .cls-38, .cls-32, .cls-33 {
        stroke-miterlimit: 10;
      }

      .cls-39 {
        fill: #1d1d20;
      }

      .cls-40 {
        fill: #fff;
      }

      .cls-41 {
        fill: url(#Degradado_sin_nombre_109);
      }

      .cls-2, .cls-3 {
        stroke-width: 5.8px;
      }

      .cls-2, .cls-3, .cls-5, .cls-9, .cls-11, .cls-13, .cls-15, .cls-18, .cls-20, .cls-24, .cls-26, .cls-27, .cls-28, .cls-29, .cls-30, .cls-31, .cls-34, .cls-35 {
        stroke-linejoin: round;
      }

      .cls-2, .cls-9, .cls-11, .cls-13, .cls-15, .cls-18, .cls-20, .cls-24, .cls-26, .cls-27, .cls-28, .cls-29, .cls-30, .cls-31, .cls-35 {
        stroke: #dde55c;
      }

      .cls-42 {
        fill: #ad74d6;
      }

      .cls-43 {
        fill: #e6aec7;
      }

      .cls-36 {
        stroke-width: 1.91px;
      }

      .cls-36, .cls-44, .cls-37 {
        fill: #4f3562;
      }

      .cls-4 {
        stroke-width: 1.54px;
      }

      .cls-5 {
        stroke-width: 4.9px;
      }

      .cls-45 {
        fill: #131840;
      }

      .cls-6 {
        stroke-width: 1.47px;
      }

      .cls-7 {
        stroke-width: 1.27px;
      }

      .cls-46 {
        fill: #dde55c;
      }

      .cls-8 {
        stroke-width: 6.3px;
      }

      .cls-47 {
        fill: #38397a;
      }

      .cls-9, .cls-30 {
        stroke-width: 4.61px;
      }

      .cls-10 {
        stroke-width: 1.25px;
      }

      .cls-11 {
        stroke-width: 3.49px;
      }

      .cls-12, .cls-16 {
        stroke-width: 8px;
      }

      .cls-12, .cls-19, .cls-32 {
        stroke: #ad74d6;
      }

      .cls-13 {
        stroke-width: 5px;
      }

      .cls-14 {
        stroke-width: 2.52px;
      }

      .cls-15 {
        stroke-width: 3.1px;
      }

      .cls-16 {
        stroke: #4f3562;
      }

      .cls-17 {
        stroke-width: 1.35px;
      }

      .cls-18 {
        stroke-width: 3.07px;
      }

      .cls-19 {
        stroke-width: 14px;
      }

      .cls-20 {
        stroke-width: 6.14px;
      }

      .cls-21 {
        stroke-width: 1.34px;
      }

      .cls-22 {
        stroke-width: 1.22px;
      }

      .cls-48 {
        clip-path: url(#clippath);
      }

      .cls-23 {
        stroke-width: 1.2px;
      }

      .cls-24 {
        stroke-width: 7.68px;
      }

      .cls-26, .cls-29 {
        stroke-width: 2.33px;
      }

      .cls-27 {
        stroke-width: 3.88px;
      }

      .cls-28 {
        stroke-width: 6.91px;
      }

      .cls-37 {
        stroke-width: 3.78px;
      }

      .cls-38 {
        stroke-width: 3.15px;
      }

      .cls-38, .cls-49 {
        fill: #7e549c;
      }

      .cls-31 {
        stroke-width: 10px;
      }

      .cls-32 {
        stroke-width: 3.25px;
      }

      .cls-33 {
        stroke-width: 1.15px;
      }

      .cls-34 {
        stroke-width: 5.55px;
      }

      .cls-35 {
        stroke-width: 1.55px;
      }

      .cls-50 {
        fill: #201527;
      }
    </style>
    <clipPath id="clippath">
      <polygon class="cls-25" points="920.66 532.38 780.29 555.85 780.29 364.02 920.66 316.96 920.66 532.38"/>
    </clipPath>
    <linearGradient id="Degradado_sin_nombre_109" data-name="Degradado sin nombre 109" x1="-300.28" y1="830.8" x2="-65.33" y2="830.8" gradientTransform="translate(1681.28 620) rotate(90)" gradientUnits="userSpaceOnUse">
      <stop offset="0" stop-color="#e6aec7"/>
      <stop offset=".93" stop-color="#131840"/>
    </linearGradient>
  </defs>
  <rect class="cls-39" width="1062.99" height="2301.73"/>
  <polygon class="cls-39" points="1015.88 604.16 177.43 790.89 189.49 797.67 1025.78 613.05 1015.88 604.16"/>
  <g>
    <polygon class="cls-39" points="149.18 286.27 149.18 323.53 1009.41 600.18 1025.78 612.76 1023.45 103.48 1008.87 94.57 149.18 286.27"/>
    <polygon class="cls-39" points="154.22 290.23 165.21 784.36 1006.47 601.33 1007.97 100.42 154.22 290.23"/>
    <polygon class="cls-49" points="1012.11 101.16 1020.75 106.92 1020.75 601.91 1012.11 594.35 1012.11 101.16"/>
  </g>
  <path class="cls-42" d="M122.51,285.04L978.21,96.09v443.05s-1.09,5.32-10.94,6.35S131.26,733.39,122.51,731.34V285.04Z"/>
  <polygon class="cls-39" points="961.84 98.83 981.68 109.54 981.68 542.75 961.84 526.69 961.84 98.83"/>
  <polygon class="cls-39" points="117.28 234.47 117.28 271.73 977.51 78.95 991.55 89.21 991.55 51.68 976.97 42.77 117.28 234.47"/>
  <polygon class="cls-42" points="122.32 238.43 122.32 257.33 976.07 68.6 976.07 48.62 122.32 238.43"/>
  <polygon class="cls-49" points="980.21 49.36 988.85 55.12 988.85 568.9 980.21 561.34 980.21 49.36"/>
  <polygon class="cls-39" points="100.72 257.05 100.72 278.92 120.16 288.64 983.63 95.05 983.63 76.42 967.43 64.27 100.72 257.05"/>
  <polygon class="cls-44" points="104.64 260.11 104.64 274.69 111.12 274.69 962.6 85.96 962.6 69.76 104.64 260.11"/>
  <g>
    <polygon class="cls-39" points="976.57 227.13 976.57 239.82 1031.65 284.64 1042.72 284.64 1042.72 274.92 986.56 227.13 976.57 227.13"/>
    <rect class="cls-42" x="978.71" y="229.42" width="5.94" height="10.26"/>
    <polygon class="cls-44" points="986.81 239.68 986.81 229.96 1040.54 275.05 1040.54 282.88 986.81 239.68"/>
  </g>
  <g>
    <polygon class="cls-39" points="976.57 323.34 976.57 336.03 1031.65 380.85 1042.72 380.85 1042.72 371.13 986.56 323.34 976.57 323.34"/>
    <rect class="cls-42" x="978.71" y="325.64" width="5.94" height="10.26"/>
    <polygon class="cls-44" points="986.81 335.9 986.81 326.18 1040.54 371.27 1040.54 379.1 986.81 335.9"/>
  </g>
  <g>
    <polygon class="cls-39" points="976.57 419.55 976.57 432.24 1031.65 477.07 1042.72 477.07 1042.72 467.35 986.56 419.55 976.57 419.55"/>
    <rect class="cls-42" x="978.71" y="421.85" width="5.94" height="10.26"/>
    <polygon class="cls-44" points="986.81 432.11 986.81 422.39 1040.54 467.48 1040.54 475.31 986.81 432.11"/>
  </g>
  <g>
    <polygon class="cls-39" points="976.57 511.39 976.57 524.08 1031.65 568.9 1042.72 568.9 1042.72 559.18 986.56 511.39 976.57 511.39"/>
    <rect class="cls-42" x="978.71" y="513.68" width="5.94" height="10.26"/>
    <polygon class="cls-44" points="986.81 523.94 986.81 514.22 1040.54 559.31 1040.54 567.14 986.81 523.94"/>
  </g>
  <line class="cls-38" x1="142.81" y1="293.43" x2="955.57" y2="109.24"/>
  <line class="cls-1" x1="131.19" y1="300.29" x2="131.19" y2="721.5"/>
  <line class="cls-8" x1="141.99" y1="464.99" x2="141.99" y2="719.62"/>
  <line class="cls-8" x1="956.01" y1="119.43" x2="956.01" y2="527.9"/>
  <line class="cls-1" x1="944.5" y1="264.79" x2="944.5" y2="475.69"/>
  <polygon class="cls-39" points="988.85 573.71 959.37 547.23 122.51 731.94 164.63 754.37 988.85 573.71"/>
  <polygon class="cls-42" points="974.89 563.78 145.22 743.64 163.22 752.64 983.52 571.22 974.89 563.78"/>
  <polygon class="cls-49" points="1010.86 598.13 165.21 784.36 182.41 793.55 1020.75 607.02 1010.86 598.13"/>
  <line class="cls-8" x1="944.44" y1="540.05" x2="154.22" y2="713.89"/>
  <polygon class="cls-39" points="504.37 2301.73 620.94 2301.73 624.37 670.9 504.37 710.33 504.37 2301.73"/>
  <line class="cls-19" x1="606.89" y1="796.01" x2="606.89" y2="2294.29"/>
  <polygon class="cls-49" points="527.46 797.93 573.18 818.5 573.18 2301.73 527.46 2301.73 527.46 797.93"/>
  <line class="cls-16" x1="586.75" y1="1347.44" x2="586.75" y2="1751.15"/>
  <line class="cls-16" x1="517.18" y1="1390.01" x2="517.18" y2="1540.41"/>
  <line class="cls-12" x1="586.75" y1="1301.44" x2="586.75" y2="1320.36"/>
  <line class="cls-12" x1="517.18" y1="1316.87" x2="517.18" y2="1352.04"/>
  <path class="cls-34" d="M999.82,593.72s-3.47,99.24-81.11,115.87c-77.64,16.64-110.95-72.25-110.95-72.25"/>
  <g>
    <path class="cls-42" d="M1001.01,576.8c1.78,2.58,3.58,7.79,2.07,18.01-.22,1.51-1.38,2.77-2.89,3.01-.97,.15-2.07-.06-3.05-1.19s-1.29-2.53-1.08-3.94c.42-2.69,.98-8.41-1.01-11.88-.96-1.68-.79-2.98-.19-3.95,1.38-2.21,4.65-2.2,6.13-.05Z"/>
    <path class="cls-23" d="M995.06,580.81c.1-.08,3.89,.33,3.92,.33,.03,0,3.83,.55,4.03,.46"/>
    <path class="cls-23" d="M995.84,589.45c.1-.08,3.89,.33,3.92,.33,.03,0,3.83,.55,4.03,.46"/>
  </g>
  <g>
    <path class="cls-42" d="M801.56,616.77c-1.57,3.36-2.46,9.64,2.07,20.6,.67,1.62,2.45,2.7,4.41,2.55,1.26-.1,2.58-.63,3.52-2.16s.97-3.17,.33-4.67c-1.22-2.87-3.41-9.08-1.82-13.49,.77-2.14,.22-3.54-.79-4.45-2.31-2.08-6.4-1.17-7.71,1.63Z"/>
    <path class="cls-4" d="M810.18,620.36c-.15-.08-4.78,1.51-4.82,1.52-.03,.01-4.64,1.77-4.92,1.72"/>
    <path class="cls-4" d="M811.66,631.4c-.15-.08-4.78,1.51-4.82,1.52-.03,.01-4.64,1.77-4.92,1.72"/>
  </g>
  <path class="cls-5" d="M970.15,601.91s-3.03,74.21-84.75,85.05c-81.72,10.84-111.76-50.59-111.76-50.59"/>
  <g>
    <path class="cls-42" d="M972.19,584.65c2.26,2.46,4.44,7.4,2.1,16.96-.35,1.42-1.92,2.57-3.92,2.75-1.28,.12-2.73-.11-3.98-1.19s-1.62-2.41-1.28-3.72c.64-2.51,1.59-7.87-.91-11.18-1.21-1.61-.94-2.82-.1-3.72,1.9-2.04,6.21-1.95,8.09,.1Z"/>
    <path class="cls-21" d="M964.2,588.26c.13-.08,5.12,.41,5.16,.41,.03,0,5.03,.61,5.3,.54"/>
    <path class="cls-21" d="M964.92,596.39c.13-.08,5.12,.41,5.16,.41,.03,0,5.03,.61,5.3,.54"/>
  </g>
  <path class="cls-3" d="M882.45,625.62s-12.92,74.5-115.35,89.95c-102.01,15.38-115.62-58.58-115.62-58.58"/>
  <g>
    <path class="cls-42" d="M883.52,601.67c2.34,2.94,4.7,8.87,2.73,20.52-.29,1.72-1.81,3.16-3.8,3.43-1.27,.18-2.72-.07-4.01-1.35s-1.7-2.88-1.41-4.48c.55-3.06,1.29-9.58-1.32-13.54-1.26-1.92-1.04-3.4-.24-4.51,1.82-2.52,6.11-2.51,8.06-.06Z"/>
    <path class="cls-6" d="M875.7,606.24c.13-.1,5.11,.37,5.15,.38,.03,0,5.03,.63,5.3,.53"/>
    <path class="cls-6" d="M876.73,616.08c.13-.1,5.11,.37,5.15,.38,.03,0,5.03,.63,5.3,.53"/>
  </g>
  <g>
    <path class="cls-42" d="M647.09,653.71c-.67,2.99-.18,8.32,5.87,16.84,.9,1.26,2.62,1.93,4.26,1.56,1.05-.24,2.07-.86,2.57-2.24s.19-2.76-.65-3.92c-1.61-2.23-4.71-7.1-4.24-10.97,.23-1.87-.52-2.96-1.56-3.59-2.38-1.43-5.69-.15-6.24,2.34Z"/>
    <path class="cls-10" d="M654.89,654.96c-.14-.04-3.8,1.8-3.83,1.82-.02,.01-3.64,1.98-3.88,1.98"/>
    <path class="cls-10" d="M657.93,662.96c-.14-.04-3.8,1.8-3.83,1.82-.02,.01-3.64,1.98-3.88,1.98"/>
  </g>
  <path class="cls-3" d="M909.46,616.83s-28.64,98.77-83.28,108.85c-83.58,15.41-91.25-71.63-91.25-71.63"/>
  <path class="cls-3" d="M494.04,708.34s.62,65.68-63.29,80.17c-59.57,13.5-105.1-42.57-105.1-42.57"/>
  <g>
    <path class="cls-42" d="M315.73,727.93c-.65,2.93-.18,8.15,5.75,16.49,.88,1.24,2.57,1.89,4.17,1.52,1.03-.23,2.03-.84,2.51-2.2,.46-1.29,.19-2.7-.64-3.84-1.58-2.18-4.62-6.96-4.15-10.75,.23-1.84-.51-2.9-1.53-3.52-2.33-1.4-5.57-.15-6.11,2.29Z"/>
    <path class="cls-22" d="M323.38,729.16c-.13-.04-3.72,1.77-3.75,1.78-.02,.01-3.56,1.94-3.8,1.94"/>
    <path class="cls-22" d="M326.35,736.98c-.13-.04-3.72,1.77-3.75,1.78-.02,.01-3.56,1.94-3.8,1.94"/>
  </g>
  <g>
    <path class="cls-42" d="M495.88,686.7c2.15,2.69,4.31,8.13,2.5,18.81-.27,1.58-1.66,2.89-3.48,3.14-1.17,.16-2.49-.06-3.67-1.24s-1.56-2.64-1.3-4.11c.5-2.8,1.18-8.78-1.21-12.41-1.16-1.76-.96-3.12-.22-4.13,1.67-2.31,5.6-2.3,7.39-.06Z"/>
    <path class="cls-17" d="M488.71,690.89c.12-.09,4.69,.34,4.72,.35,.03,0,4.61,.58,4.86,.48"/>
    <path class="cls-17" d="M489.65,699.91c.12-.09,4.69,.34,4.72,.35,.03,0,4.61,.58,4.86,.48"/>
  </g>
  <path class="cls-3" d="M438.03,717.68s-13.92,90.56-137.62,110.6c-70.67,11.45-115.62-58.58-115.62-58.58"/>
  <g>
    <path class="cls-42" d="M185.15,755.79c-1.45,2.62-2.47,7.77,.86,17.44,.49,1.43,1.93,2.54,3.57,2.64,1.05,.07,2.19-.23,3.03-1.4s.94-2.54,.47-3.87c-.9-2.54-2.47-7.98-.95-11.48,.73-1.7,.33-2.93-.47-3.81-1.84-2-5.3-1.71-6.51,.47Z"/>
    <path class="cls-22" d="M192.13,759.13c-.12-.07-4.07,.65-4.1,.65-.03,0-3.97,.85-4.19,.79"/>
    <path class="cls-22" d="M192.77,767.48c-.12-.07-4.07,.65-4.1,.65-.03,0-3.97,.85-4.19,.79"/>
  </g>
  <g>
    <path class="cls-42" d="M442.66,702.15c1.18,2.71,1.75,7.69-2.13,16.11-.57,1.25-2.02,2.02-3.58,1.82-1-.13-2.05-.61-2.76-1.85s-.7-2.53-.16-3.69c1.04-2.21,2.93-7,1.77-10.54-.57-1.71-.1-2.79,.74-3.47,1.89-1.54,5.14-.65,6.12,1.6Z"/>
    <path class="cls-33" d="M435.8,704.02c.12-.05,3.8,1.33,3.83,1.34,.03,0,3.69,1.5,3.91,1.48"/>
    <path class="cls-33" d="M434.56,711.69c.12-.05,3.8,1.33,3.83,1.34,.03,0,3.69,1.5,3.91,1.48"/>
  </g>
  <line class="cls-31" x1="4.31" y1="1082.2" x2="1058.86" y2="845.71"/>
  <line class="cls-13" x1="3.62" y1="1138.42" x2="1062.99" y2="900.74"/>
  <line class="cls-13" x1="0" y1="1289.99" x2="1062.32" y2="1051.65"/>
  <line class="cls-13" x1=".03" y1="1378.98" x2="1062.99" y2="1140.5"/>
  <line class="cls-13" x1=".03" y1="1660.41" x2="1062.99" y2="1421.93"/>
  <path class="cls-2" d="M180.46,1809.67s10.66-71.54,126.43-63.08c62.5,4.57,77.09-44.25,77.09-44.25"/>
  <path class="cls-2" d="M392.72,1431.28s-90.55,54.47-218.07-17.34C7.44,1319.78,37.65,1147.98,37.65,1147.98"/>
  <path class="cls-2" d="M392.72,1704.17s-91.4,43.27-218.07-17.34C1.54,1604.01,37.65,1420.88,37.65,1420.88"/>
  <path class="cls-2" d="M473.53,1350.46s-90.55,54.47-218.07-17.34c-167.21-94.16-136.99-265.96-136.99-265.96"/>
  <g>
    <g>
      <polygon class="cls-39" points="43.23 1036.68 77.62 1069.23 77.62 1175.65 56.56 1175.65 10.71 1135.92 10.71 1036.68 43.23 1036.68"/>
      <polyline class="cls-32" points="23.95 1056.22 41.84 1056.22 70.19 1082.01"/>
      <polyline class="cls-32" points="23.95 1072.89 41.84 1072.89 70.19 1098.68"/>
      <polyline class="cls-32" points="23.95 1089.17 41.84 1089.17 70.19 1114.96"/>
      <polyline class="cls-32" points="23.95 1105.84 41.84 1105.84 70.19 1131.63"/>
      <polygon class="cls-39" points="10.71 1135.92 38.09 1135.92 77.62 1175.65 50.63 1175.65 10.71 1135.92"/>
    </g>
    <g>
      <polygon class="cls-39" points="388.88 1321.68 423.27 1354.22 423.27 1460.64 402.2 1460.64 356.35 1420.91 356.35 1321.68 388.88 1321.68"/>
      <polyline class="cls-32" points="369.6 1341.21 387.49 1341.21 415.83 1367"/>
      <polyline class="cls-32" points="369.6 1357.88 387.49 1357.88 415.83 1383.67"/>
      <polyline class="cls-32" points="369.6 1374.16 387.49 1374.16 415.83 1399.95"/>
      <polyline class="cls-32" points="369.6 1390.83 387.49 1390.83 415.83 1416.63"/>
      <polygon class="cls-39" points="356.35 1420.91 383.73 1420.91 423.27 1460.64 396.28 1460.64 356.35 1420.91"/>
    </g>
    <g>
      <polygon class="cls-39" points="388.88 1598.85 423.27 1631.4 423.27 1737.81 402.2 1737.81 356.35 1698.08 356.35 1598.85 388.88 1598.85"/>
      <polyline class="cls-32" points="369.6 1618.38 387.49 1618.38 415.83 1644.18"/>
      <polyline class="cls-32" points="369.6 1635.06 387.49 1635.06 415.83 1660.85"/>
      <polyline class="cls-32" points="369.6 1651.34 387.49 1651.34 415.83 1677.13"/>
      <polyline class="cls-32" points="369.6 1668.01 387.49 1668.01 415.83 1693.8"/>
      <polygon class="cls-39" points="356.35 1698.08 383.73 1698.08 423.27 1737.81 396.28 1737.81 356.35 1698.08"/>
    </g>
    <g>
      <polygon class="cls-39" points="126.18 993.75 160.57 1026.3 160.57 1132.72 139.51 1132.72 93.66 1092.99 93.66 993.75 126.18 993.75"/>
      <polyline class="cls-32" points="106.9 1013.29 124.79 1013.29 153.14 1039.08"/>
      <polyline class="cls-32" points="106.9 1029.96 124.79 1029.96 153.14 1055.75"/>
      <polyline class="cls-32" points="106.9 1046.24 124.79 1046.24 153.14 1072.03"/>
      <polyline class="cls-32" points="106.9 1062.91 124.79 1062.91 153.14 1088.7"/>
      <polygon class="cls-39" points="202.64 1802.52 237.03 1835.07 237.03 1941.48 215.97 1941.48 170.12 1901.75 170.12 1802.52 202.64 1802.52"/>
      <polyline class="cls-32" points="180.46 1816.63 198.35 1816.63 226.7 1842.42"/>
      <polyline class="cls-32" points="180.46 1833.3 198.35 1833.3 226.7 1859.09"/>
      <polyline class="cls-32" points="180.46 1849.58 198.35 1849.58 226.7 1875.37"/>
      <polyline class="cls-32" points="180.46 1866.25 198.35 1866.25 226.7 1892.05"/>
      <polygon class="cls-39" points="93.66 1092.99 121.03 1092.99 160.57 1132.72 133.58 1132.72 93.66 1092.99"/>
    </g>
    <g>
      <polygon class="cls-39" points="126.18 1273.81 160.57 1306.36 160.57 1412.77 139.51 1412.77 93.66 1373.04 93.66 1273.81 126.18 1273.81"/>
      <polyline class="cls-32" points="106.9 1293.34 124.79 1293.34 153.14 1319.14"/>
      <polyline class="cls-32" points="106.9 1310.02 124.79 1310.02 153.14 1335.81"/>
      <polyline class="cls-32" points="106.9 1326.3 124.79 1326.3 153.14 1352.09"/>
      <polyline class="cls-32" points="106.9 1342.97 124.79 1342.97 153.14 1368.76"/>
      <polygon class="cls-39" points="93.66 1373.04 121.03 1373.04 160.57 1412.77 133.58 1412.77 93.66 1373.04"/>
    </g>
    <g>
      <polygon class="cls-39" points="205.41 1050.51 239.81 1083.05 239.81 1189.47 218.74 1189.47 172.89 1149.74 172.89 1050.51 205.41 1050.51"/>
      <polyline class="cls-32" points="186.13 1070.04 204.02 1070.04 232.37 1095.83"/>
      <polyline class="cls-32" points="186.13 1086.71 204.02 1086.71 232.37 1112.5"/>
      <polyline class="cls-32" points="186.13 1102.99 204.02 1102.99 232.37 1128.79"/>
      <polyline class="cls-32" points="186.13 1119.67 204.02 1119.67 232.37 1145.46"/>
      <polygon class="cls-39" points="172.89 1149.74 200.27 1149.74 239.81 1189.47 212.81 1189.47 172.89 1149.74"/>
    </g>
    <g>
      <polygon class="cls-39" points="205.41 1343.29 239.81 1375.84 239.81 1482.26 218.74 1482.26 172.89 1442.52 172.89 1343.29 205.41 1343.29"/>
      <polyline class="cls-32" points="186.13 1362.83 204.02 1362.83 232.37 1388.62"/>
      <polyline class="cls-32" points="186.13 1379.5 204.02 1379.5 232.37 1405.29"/>
      <polyline class="cls-32" points="186.13 1395.78 204.02 1395.78 232.37 1421.57"/>
      <polyline class="cls-32" points="186.13 1412.45 204.02 1412.45 232.37 1438.24"/>
      <polygon class="cls-39" points="172.89 1442.52 200.27 1442.52 239.81 1482.26 212.81 1482.26 172.89 1442.52"/>
    </g>
    <g>
      <polygon class="cls-39" points="346.04 1171.74 380.44 1204.28 380.44 1310.7 359.37 1310.7 313.52 1270.97 313.52 1171.74 346.04 1171.74"/>
      <polyline class="cls-32" points="326.76 1191.27 344.65 1191.27 373 1217.06"/>
      <polyline class="cls-32" points="326.76 1207.94 344.65 1207.94 373 1233.73"/>
      <polyline class="cls-32" points="326.76 1224.22 344.65 1224.22 373 1250.02"/>
      <polyline class="cls-32" points="326.76 1240.89 344.65 1240.89 373 1266.69"/>
      <polygon class="cls-39" points="313.52 1270.97 340.9 1270.97 380.44 1310.7 353.44 1310.7 313.52 1270.97"/>
    </g>
    <g>
      <polygon class="cls-39" points="346.04 1460.28 380.44 1492.83 380.44 1599.25 359.37 1599.25 313.52 1559.52 313.52 1460.28 346.04 1460.28"/>
      <polyline class="cls-32" points="326.76 1479.82 344.65 1479.82 373 1505.61"/>
      <polyline class="cls-32" points="326.76 1496.49 344.65 1496.49 373 1522.28"/>
      <polyline class="cls-32" points="326.76 1512.77 344.65 1512.77 373 1538.56"/>
      <polyline class="cls-32" points="326.76 1529.44 344.65 1529.44 373 1555.23"/>
      <polygon class="cls-39" points="313.52 1559.52 340.9 1559.52 380.44 1599.25 353.44 1599.25 313.52 1559.52"/>
    </g>
    <g>
      <polygon class="cls-39" points="457.16 1272.06 491.56 1304.61 491.56 1411.02 470.49 1411.02 424.64 1371.29 424.64 1272.06 457.16 1272.06"/>
      <polyline class="cls-32" points="437.88 1291.59 455.77 1291.59 484.12 1317.39"/>
      <polyline class="cls-32" points="437.88 1308.27 455.77 1308.27 484.12 1334.06"/>
      <polyline class="cls-32" points="437.88 1324.55 455.77 1324.55 484.12 1350.34"/>
      <polyline class="cls-32" points="437.88 1341.22 455.77 1341.22 484.12 1367.01"/>
      <polygon class="cls-39" points="424.64 1371.29 452.02 1371.29 491.56 1411.02 464.56 1411.02 424.64 1371.29"/>
    </g>
    <g>
      <polygon class="cls-39" points="457.16 1540.94 491.56 1573.49 491.56 1679.91 470.49 1679.91 424.64 1640.18 424.64 1540.94 457.16 1540.94"/>
      <polyline class="cls-32" points="437.88 1560.48 455.77 1560.48 484.12 1586.27"/>
      <polyline class="cls-32" points="437.88 1577.15 455.77 1577.15 484.12 1602.94"/>
      <polyline class="cls-32" points="437.88 1593.43 455.77 1593.43 484.12 1619.22"/>
      <polyline class="cls-32" points="437.88 1610.1 455.77 1610.1 484.12 1635.89"/>
      <polygon class="cls-39" points="424.64 1640.18 452.02 1640.18 491.56 1679.91 464.56 1679.91 424.64 1640.18"/>
    </g>
    <g>
      <polygon class="cls-39" points="43.23 1306.23 77.62 1338.78 77.62 1445.2 56.56 1445.2 10.71 1405.47 10.71 1306.23 43.23 1306.23"/>
      <polyline class="cls-32" points="23.95 1325.77 41.84 1325.77 70.19 1351.56"/>
      <polyline class="cls-32" points="23.95 1342.44 41.84 1342.44 70.19 1368.23"/>
      <polyline class="cls-32" points="23.95 1358.72 41.84 1358.72 70.19 1384.51"/>
      <polyline class="cls-32" points="23.95 1375.39 41.84 1375.39 70.19 1401.18"/>
      <polygon class="cls-39" points="10.71 1405.47 38.09 1405.47 77.62 1445.2 50.63 1445.2 10.71 1405.47"/>
    </g>
    <g>
      <polygon class="cls-39" points="16.28 1083.04 16.28 1117.9 408.73 1448.3 431.03 1448.3 431.03 1415.54 44.17 1083.04 16.28 1083.04"/>
      <rect class="cls-42" x="21.16" y="1089.32" width="16.73" height="22.31"/>
      <polygon class="cls-42" points="44.17 1089.32 44.17 1111.62 424.76 1439.24 424.76 1417.63 44.17 1089.32"/>
    </g>
    <g>
      <polygon class="cls-39" points="16.28 1347.14 16.28 1381.99 408.73 1712.4 431.03 1712.4 431.03 1679.63 44.17 1347.14 16.28 1347.14"/>
      <rect class="cls-42" x="21.16" y="1353.41" width="16.73" height="22.31"/>
      <polygon class="cls-42" points="44.17 1353.41 44.17 1375.72 424.76 1703.33 424.76 1681.72 44.17 1353.41"/>
    </g>
    <g>
      <polygon class="cls-39" points="235.62 1118.59 258.39 1111.62 289.06 1130.36 289.06 2301.73 235.62 2301.73 235.62 1118.59"/>
      <polygon class="cls-49" points="239.81 1121.38 257.93 1115.81 257.93 2298.62 239.81 2298.62 239.81 1121.38"/>
      <polygon class="cls-42" points="264.9 2298.62 283.49 2298.62 283.49 1130.36 264.9 1119.99 264.9 2298.62"/>
    </g>
    <g>
      <polygon class="cls-39" points="86.1 1056.58 86.1 1091.43 478.55 1421.84 500.85 1421.84 500.85 1389.07 113.99 1056.58 86.1 1056.58"/>
      <rect class="cls-42" x="90.98" y="1062.85" width="16.73" height="22.31"/>
      <polygon class="cls-42" points="113.99 1062.85 113.99 1085.16 494.58 1412.77 494.58 1391.17 113.99 1062.85"/>
    </g>
    <g>
      <polygon class="cls-39" points="86.1 1324.11 86.1 1358.97 478.55 1689.37 500.85 1689.37 500.85 1656.61 113.99 1324.11 86.1 1324.11"/>
      <rect class="cls-42" x="90.98" y="1330.39" width="16.73" height="22.31"/>
      <polygon class="cls-42" points="113.99 1330.39 113.99 1352.69 494.58 1680.31 494.58 1658.7 113.99 1330.39"/>
    </g>
  </g>
  <g>
    <g>
      <polygon class="cls-39" points="170.12 1840.07 170.12 2094.67 280.41 2173.2 361.32 2157.61 358.3 1905.48 264.21 1822.87 170.12 1840.07"/>
      <polyline class="cls-42" points="264.21 2074.44 352.77 2138.49 349.75 1906.23 264.21 1834.53 264.21 2070.56"/>
      <polygon class="cls-44" points="174.65 1845.1 257.67 1830.16 257.67 2074.01 174.65 2089.64 174.65 1845.1"/>
    </g>
    <g>
      <polygon class="cls-39" points="266.93 1866.6 266.93 2064.12 360.74 2130.81 381.32 2127.16 381.32 1933.55 283.86 1861.97 266.93 1866.6"/>
      <polyline class="cls-42" points="289.93 2055.06 377.88 2122.23 377.88 1934.3 289.93 1871.49 289.93 2055.06"/>
      <polygon class="cls-44" points="270.29 1872.94 284.15 1869.13 284.21 2054.55 270.29 2061.86 270.29 1872.94"/>
    </g>
    <g>
      <polygon class="cls-39" points="294.94 1880.46 294.94 2051.6 368.82 2106.58 381.32 2096.73 381.32 1931.02 314.07 1877.74 294.94 1880.46"/>
      <polyline class="cls-42" points="314.07 2045.73 378.93 2095.87 378.93 1931.79 315.06 1882.51 314.07 2043.55"/>
    </g>
  </g>
  <g>
    <polygon class="cls-39" points="159.59 2022.66 159.59 2046.98 175.12 2055.95 272.72 2038.25 272.72 2017.29 257.39 2004.03 159.59 2022.66"/>
    <polygon class="cls-42" points="161.95 2024.64 161.95 2045.73 255.84 2026.69 255.84 2006.79 161.95 2024.64"/>
    <polygon class="cls-42" points="258.56 2008.25 258.56 2026.62 270.72 2035.68 270.72 2018 258.56 2008.25"/>
  </g>
  <g>
    <polygon class="cls-39" points="159.59 1958.16 159.59 1982.48 175.12 1991.45 272.72 1973.75 272.72 1952.79 257.39 1939.53 159.59 1958.16"/>
    <polygon class="cls-42" points="161.95 1960.14 161.95 1981.24 255.84 1962.19 255.84 1942.29 161.95 1960.14"/>
    <polygon class="cls-42" points="258.56 1943.76 258.56 1962.13 270.72 1971.18 270.72 1953.5 258.56 1943.76"/>
  </g>
  <g>
    <polygon class="cls-39" points="159.59 1893.67 159.59 1917.99 175.12 1926.96 272.72 1909.25 272.72 1888.3 257.39 1875.04 159.59 1893.67"/>
    <polygon class="cls-42" points="161.95 1895.65 161.95 1916.74 255.84 1897.7 255.84 1877.8 161.95 1895.65"/>
    <polygon class="cls-42" points="258.56 1879.26 258.56 1897.63 270.72 1906.69 270.72 1889.01 258.56 1879.26"/>
  </g>
  <path class="cls-36" d="M318.86,2025.42l52.54,25.47s5.61,2.3,6.49-5.16l2.03-86.63-.06-3.22s-.33-3.68-.33-3.7c-1.04-5.44-5.18-8.08-10.56-9.38l-42.78-14.05c-5.48-1.8-11.3,1.79-12.06,7.51-.01,.11-.03,.22-.04,.33-1.38,11.07-.22,77.89-.22,77.89,0,0-.82,9.52,5.01,10.94Z"/>
  <path class="cls-27" d="M342.26,2006.99s-8.48-7.63-19.45-7.78c0,0,5.98,.66,10.63-4.17"/>
  <path class="cls-27" d="M341.64,1971.2s-8.46,7.65-19.42,7.83c0,0,5.98-.67,10.64,4.14"/>
  <path class="cls-26" d="M339.52,1993.87s8.98,9.29,10.48,8.46"/>
  <line class="cls-26" x1="340.36" y1="2001.01" x2="347" y2="1995.02"/>
  <line class="cls-26" x1="339.51" y1="1979.25" x2="346.99" y2="1983.73"/>
  <line class="cls-26" x1="341.01" y1="1983.74" x2="346.15" y2="1979.24"/>
  <path class="cls-29" d="M355.99,2006.07s-8.99-17.6-.05-34.88"/>
  <path class="cls-29" d="M352.75,1993.92l10.95,.95s5.9,.12,5.73-3.7c-.17-3.82-3.88-4.6-3.88-4.6l-7.6-1.53"/>
  <path class="cls-15" d="M346.23,2007.97s-4.46,17.45,5.68,24.58"/>
  <path class="cls-29" d="M351.87,2007.96s-1.15,6.81,2.01,13.45"/>
  <path class="cls-15" d="M344.96,1968.28s-6.66-11.79-5.18-21.09"/>
  <path class="cls-29" d="M350.77,1966.78s-4.49-10.96-1.35-17.27"/>
  <path class="cls-11" d="M363.29,2004.49l6.16,8.74s-5.49-2.98-9.48-2.31l7.66,13.94-9.65-7.96"/>
  <path class="cls-11" d="M363.25,1973.01l6.14-8.76s-5.48,3-9.47,2.34l7.62-13.96-9.62,7.99"/>
  <line class="cls-35" x1="353.6" y1="1989.26" x2="362.32" y2="1990.5"/>
  <line class="cls-7" x1="313.72" y1="2012.02" x2="380" y2="1963.93"/>
  <path class="cls-2" d="M218.74,1182.51s-13.85,70.36-65.6,48.34c-61.25-26.06-34.67-122.67-34.67-122.67"/>
  <path class="cls-2" d="M461,1388.82s-36.24,34.63-76.11,1.2c-51-42.77-41.02-95.81-41.02-95.81"/>
  <path class="cls-2" d="M464.56,1672.94s-41.88,51.87-95.17,23.43c-58.72-31.34-46.58-142.85-46.58-142.85"/>
  <path class="cls-2" d="M222.89,1468.44s-31.08,54.36-81,24.43c-57.08-34.23-42.54-124.11-42.54-124.11"/>
  <path class="cls-2" d="M186.13,1834.53s-73.8,4.38-131.71-123.55c-71.36-157.65-16.78-290.11-16.78-290.11"/>
  <line class="cls-13" x1=".67" y1="1350.15" x2="1062.29" y2="1110.57"/>
  <g>
    <path class="cls-39" d="M384.56,530.71s-43.58,80.56-25.67-73.52c0,0-16.04,11.34-20.65-.23,0,0,29.42,162.19-28.75,63.04,0,0,1.67,23.31-10.19,14.85,5.36,8.35,13.38,22.86,25.82,33.94,15.38,13.7,24.02,15.53,50.84,3.06,10.39-4.83,16.87-28.04,19.37-38.33,0,0-10.31,10.55-10.78-2.82Zm-53.7,26.09s17.61,16.37,18.87-36.13c0-2.9,.07-4.72,.07-4.72,0,1.64-.03,3.2-.07,4.72,.02,13.37,1.7,49.78,20.14,37.32,0,0-21.09,37.12-39.01-1.19Z"/>
    <path class="cls-39" d="M253.62,476.96s-13.63,16.55-39.06,6.28c0,0-10.73,44.17-35.39,59.28,0,0,9.08,24.77-5.12,77.85,0,0,13.82,6.25,9.12,31.27,0,0,31.39-52.57,55.32-33.92,0,0-10.96-58,4.96-81.39,0,0-16.22,22.97-27.4,16.72,0,0,18.31,23.05,10.4,39.62,0,0-20.21,1.01-31.37,26.17,0,0,10.78-39.57,1.43-63.72,0,0,11.28-45.28,39.33-43.58,0,0-1.06-16.76,17.78-34.58Z"/>
    <g>
      <path class="cls-39" d="M261.86,486.29c-.3-1.61-.65-3.13-1.06-4.51,0,0,.09,2.14,1.06,4.51Z"/>
      <path class="cls-39" d="M391.56,458.15c29.75,118.27-20.95,123.29-20.95,123.29-37.66,19.36-74.29-37.42-74.29-37.42-9.3-33.67,20.21-81.21,20.21-81.21-41.04,39.9-51.8,30.57-54.68,23.47,7.34,39.03-14.16,138.05-14.16,138.05,12.87-20.74,28.68-13.18,28.68-13.18-5.41-61.56,2.26-56.72,2.26-56.72,54.01,94.26,96.77,55.94,96.77,55.94,8.29-1.44,9.82,10.81,9.82,10.81,.67-18.01,25.42-57.96,25.42-57.96,13.98-18.54,28.6-20.89,28.6-20.89-1.77-8.99,9.57-30.76,9.57-30.76-6.63,12.22-21.36,20.71-28.37,19.62-6.95-1.08-5.25-12.5-5.25-12.5,5.72-19.89,37.4-25.56,37.4-25.56,3.39-20.8,24.37-45.22,24.37-45.22-72.28,54.45-85.41,10.23-85.41,10.23Zm-122.01,83.07c6.36-27.39-2.52-40.44-2.52-40.44,11.23,14.18,26.58,9.93,26.58,9.93-11.58,4.15-24.06,30.52-24.06,30.52Z"/>
    </g>
    <path class="cls-39" d="M406.27,590.19s19.29,10.56,9.55,38.71c0,0,69.73-39.42,113.64-199.75,0,0-23.2,23.63-35.53,13.82,0,0,6.86,117.49-87.66,147.21Z"/>
    <path class="cls-39" d="M539.42,428.42s-4.38,109.87-90.6,193.56c0,0,18.03,4.41,17.41,9.28,0,0,27.71-14.25,102.37-24.46,0,0,9.91-48.04,19.85-57.87,0,0-47.85,53.2-92.04,51.36,0,0,24.8-80.82,41.29-92.65,0,0,44.83-47.07,58.01-36.57,0,0-4.6-35.96,24.82-64.72,0,0-71.67,49.62-81.1,22.07Z"/>
    <g>
      <path class="cls-39" d="M584.84,611.87c2.17-2.33,4.24-4.79,6.24-7.36-4.79,4.61-6.24,7.36-6.24,7.36Z"/>
      <path class="cls-39" d="M739.11,350.14s-33.3,42.12-103.29,54.94c0,0,6.16,133.91-44.74,199.42,9.39-9.05,31.91-25.5,83.71-43.48,0,0,14.87-136.8,64.32-210.89Zm-110.98,210.35s29.65-92.43,20.97-142.98c0,0,30,9.13,60.31-28.79,0,0-37.93,47.38-41.56,144.76,0,0-27.16,3.99-39.72,27Z"/>
    </g>
    <path class="cls-46" d="M184.17,549.28s3.83,12.68,9.28,9.35c0,0,9.18,30.48-4.66,65.57,0,0-2.96-12.11-8.88-7.96,0,0,13.31-21.04,4.26-66.96Z"/>
    <path class="cls-46" d="M195.27,621.28s.76,7.48-3.76,14.12c0,0,26.52-38.6,37.47-30.63,0,0-4.15-4.21-2.55-8.72,0,0-11.85-2.93-31.16,25.23Z"/>
    <path class="cls-46" d="M225.64,556.8s4.11,4.73,9.01-4.97c0,0-.85,20.03-5.66,40.29,0,0,4.37-25.38-3.35-35.32Z"/>
    <path class="cls-46" d="M253.98,608.53s10.94-15.51,17.7-4.35c0,0-8.44-30.15,2.21-52.54,0,0-9.98,5.9-7.96-10.08,0,0-7.88,38.54-11.95,66.97Z"/>
    <path class="cls-46" d="M374.31,605.32s-39.23,30.87-90.47-51.91c0,0,9.39,7.11,9.77-7.45,0,0,32.9,58.66,74.39,42.88,0,0,9.73,5.94,6.31,16.48Z"/>
    <path class="cls-46" d="M407.56,529.86s7.05,30.37-32.53,57.28c0,0,8.2,5.17,6.72,18.71,0,0,25.51-56.32,36.56-56.77,0,0-8.31,0-10.75-19.21Z"/>
    <path class="cls-46" d="M416.6,592.11s10.56,10.12,4.75,25.84c0,0,34.18-24.32,61.04-76.82,0,0-5.42,5.12-6.05-4.11,0,0-20.53,43.29-59.75,55.09Z"/>
    <path class="cls-46" d="M496.19,569.05s6.89-.22,10.1-10.44c0,0-18.12,57.18-35.47,63.02,0,0-5.97-6.97-13.1-3.05,0,0,26.13-16.28,38.47-49.53Z"/>
    <path class="cls-46" d="M572.75,572.69s-10.86,12.28-6.92,27.61c0,0-67.02,7.64-77.2,18.58,0,0,7.91-6.49,10.18-10.94,0,0,55.03-14.18,73.94-35.24Z"/>
    <path class="cls-46" d="M619.67,580.38s7.43-8.44,7.03-14.45c0,0,33.68-35.37,44.63-26.72,0,0-5.52,10.29-1.04,16.04,0,0-23.3-1-50.62,25.13Z"/>
    <path class="cls-46" d="M306.41,540.44s6.71,.73,5.97-9.78c0,0,5.68,21.19,17.24,22.94,0,0-5.29,3.78-.62,10.85,0,0-7.61,3.28-22.59-24.01Z"/>
    <path class="cls-46" d="M372.95,555.03s-.49,8.74-5.62,15.03c0,0,20.16-7.9,22.34-25.08,0,0-5.77-.42-4.95-4.91,0,0-4.33,14.23-11.76,14.96Z"/>
  </g>
  <g>
    <path class="cls-50" d="M241.59,373.28c6.21-3.23,11.18-8.25,14.93-15.05,3.75-6.81,5.63-14.62,5.63-23.45,0-12.81-3.58-21.8-10.73-26.98-7.13-5.16-16.89-6.42-29.24-3.8l-61.2,13.01v148.72l62.92-11.89c13.16-2.49,23.29-7.99,30.37-16.51,7.1-8.54,10.65-19.43,10.65-32.67,0-8.68-2.05-15.93-6.15-21.73-4.1-5.79-9.83-9.01-17.18-9.66Z"/>
    <polygon class="cls-50" points="314.58 284.37 269.27 445.28 310 437.58 310 437.58 364.29 427.32 364.29 427.32 406.43 419.36 360 274.71 314.58 284.37"/>
    <path class="cls-50" d="M518.8,320.42c4.94-9.14,7.42-18.97,7.42-29.49,0-9.78-1.91-18.16-5.73-25.14-3.81-6.97-9.52-11.9-17.12-14.81-7.58-2.89-16.7-3.21-27.33-.95l-60.53,12.87v154.73l40.6-7.67h0s24.75-4.68,24.75-4.68h0s45.55-8.61,45.55-8.61l-28.82-54.52c9.2-5.37,16.28-12.61,21.22-21.74Z"/>
    <path class="cls-50" d="M646.85,294.72c5.13-9.33,7.7-19.36,7.7-30.09,0-9.97-1.99-18.5-5.95-25.6-3.96-7.09-9.89-12.09-17.79-15.02-7.88-2.92-17.34-3.2-28.38-.85l-62.85,13.36v157.66l42.15-7.97h0s25.7-4.86,25.7-4.86h0s47.31-8.94,47.31-8.94l-29.94-55.46c9.56-5.51,16.91-12.92,22.04-22.24Z"/>
    <polygon class="cls-50" points="668.45 369.83 712.25 361.55 712.25 199.82 668.45 209.13 668.45 369.83"/>
    <path class="cls-50" d="M866.46,205.34c-6.71-11.52-15.78-19.69-27.19-24.5-11.38-4.79-23.89-5.73-37.5-2.83-13.56,2.89-25.96,9.1-37.2,18.63-11.21,9.49-20.07,21.27-26.61,35.32-6.53,14.03-9.79,28.97-9.79,44.85s3.26,29.51,9.79,40.91c6.54,11.43,15.4,19.68,26.61,24.74,11.24,5.09,23.64,6.36,37.2,3.8,13.48-2.54,25.94-8.53,37.39-17.99,11.48-9.49,20.59-21.34,27.3-35.56,6.72-14.24,10.08-29.49,10.08-45.71s-3.37-30.11-10.08-41.65Z"/>
  </g>
  <g class="cls-48">
    <g>
      <path class="cls-41" d="M780.29,544.42v-168.96c0-6.32,3.35-12.56,7.5-13.95l123.54-41.41c5.14-1.72,9.33,2.62,9.33,9.72v189.73c0,7.09-4.19,13.54-9.33,14.4l-123.54,20.66c-4.16,.69-7.5-3.87-7.5-10.18Z"/>
      <path class="cls-45" d="M807.59,532.72l-5.64,1.03c-1.56,.29-2.83-1.39-2.83-3.74v-154.57c0-2.35,1.26-4.67,2.83-5.17l5.64-1.83c1.58-.51,2.87,1,2.87,3.37v156.08c0,2.38-1.29,4.54-2.87,4.83Z"/>
      <path class="cls-45" d="M826.92,556.15l-9.54,1.53c-1.91,.31-3.46-1.75-3.46-4.59v-155.54c0-2.84,1.55-5.61,3.46-6.19l9.54-2.88c1.95-.59,3.54,1.27,3.54,4.15v157.73c0,2.88-1.59,5.47-3.54,5.78Z"/>
      <path class="cls-45" d="M839.68,402.5v-20c0-1.21,.72-1.95,1.6-2.22l30.68-21.02c.93-.29,1.69,.1,1.69,1.34v32.16c0,1.25-.76,2.48-1.69,2.74l-30.68,8.74c-.88,.25-1.6-.53-1.6-1.74Z"/>
      <path class="cls-45" d="M790.33,543.37l-2.85,.5c-.8,.14-1.44-.73-1.44-1.95v-80.05c0-1.22,.65-2.36,1.44-2.56l2.85-.71c.8-.2,1.45,.63,1.45,1.85v80.45c0,1.22-.65,2.33-1.45,2.47Z"/>
      <path class="cls-45" d="M781.71,462.63v-.56c0-.72,.38-1.4,.85-1.52l54.3-13.59c.52-.13,.94,.38,.94,1.14v.59c0,.76-.42,1.47-.94,1.6l-54.3,13.43c-.47,.12-.85-.37-.85-1.1Z"/>
      <path class="cls-45" d="M782.72,469.3c0,1.03-.54,1.99-1.21,2.15s-1.21-.54-1.21-1.56,.54-1.99,1.21-2.15,1.21,.54,1.21,1.56Z"/>
      <path class="cls-45" d="M895.56,456.3l-1.58,.37c-.76,.17-1.37-.54-1.37-1.59v-88.47c0-1.05,.61-2.1,1.37-2.33l1.58-.48c.76-.23,1.37,.44,1.37,1.5v88.78c0,1.06-.62,2.06-1.37,2.23Z"/>
      <path class="cls-45" d="M892.61,380.32v-1.91c0-.28,.16-.56,.37-.62l9.02-2.65c.2-.06,.37,.12,.37,.4v1.92c0,.28-.17,.56-.37,.62l-9.02,2.63c-.2,.06-.37-.12-.37-.4Z"/>
      <path class="cls-45" d="M909.04,474.34l-3.84,.82c-1,.21-1.81-.73-1.81-2.12v-88.07c0-1.39,.81-2.74,1.81-3.03l3.84-1.11c1.01-.29,1.83,.6,1.83,2v88.59c0,1.39-.82,2.7-1.83,2.92Z"/>
      <path class="cls-45" d="M903.87,394.35v-1.36c0-.24,.14-.48,.32-.53l8.99-2.52c.18-.05,.32,.11,.32,.35v1.37c0,.25-.14,.48-.32,.53l-8.99,2.5c-.18,.05-.32-.11-.32-.35Z"/>
      <path class="cls-45" d="M917.61,394.19c0,1.49-.88,2.95-1.97,3.24s-1.97-.67-1.97-2.16,.88-2.94,1.97-3.24,1.97,.66,1.97,2.16Z"/>
      <path class="cls-45" d="M910.87,517.68v-67.5c0-4.1-.49-5.75-1.09-5.6l-19.94-32.99c-.58,.16-1.05,2.3-1.05,6.33v103.74c0,4.03,.47,7.21,1.05,7.11l19.94-3.47c.6-.1,1.09-3.51,1.09-7.61Z"/>
      <path class="cls-45" d="M868.5,541.1l-23.9,4c-2.72,.46-4.92-2.38-4.92-6.32v-147.15c0-3.95,2.2-7.81,4.92-8.63l23.9-7.21c2.84-.86,5.16,1.73,5.16,5.79v151.31c0,4.06-2.31,7.73-5.16,8.21Z"/>
      <path class="cls-45" d="M882.36,538.78l-2.35,.39c-1.2,.2-2.17-1.01-2.17-2.7v-145.7c0-1.69,.97-3.35,2.17-3.7l2.35-.68c1.21-.35,2.19,.75,2.19,2.45v146.49c0,1.7-.98,3.25-2.19,3.45Z"/>
      <path class="cls-45" d="M798.81,587.44l-5.52,.76c-1.62,.22-2.93-1.59-2.93-4.05v-166.34c0-2.46,1.31-4.83,2.93-5.3l5.52-1.6c1.64-.47,2.97,1.15,2.97,3.63v167.99c0,2.48-1.33,4.68-2.97,4.9Z"/>
      <path class="cls-45" d="M818.46,580.11l-15.9,2.25c-2.14,.3-3.87-2.06-3.87-5.28v-135.26c0-3.22,1.73-6.29,3.87-6.86l15.9-4.26c2.21-.59,4,1.59,4,4.87v138.03c0,3.28-1.8,6.2-4,6.51Z"/>
      <path class="cls-45" d="M841.49,588.74l-12.93,1.7c-2.03,.27-3.67-1.94-3.67-4.92v-139.43c0-2.98,1.64-5.82,3.67-6.35l12.93-3.34c2.08-.54,3.77,1.49,3.77,4.52v141.82c0,3.03-1.69,5.71-3.77,5.99Z"/>
      <path class="cls-45" d="M887.96,567l-1.98,.28c-1.29,.19-2.33-1.13-2.33-2.94v-169.1c0-1.81,1.04-3.58,2.33-3.94l1.98-.56c1.3-.37,2.35,.81,2.35,2.63v170.01c0,1.82-1.05,3.45-2.35,3.64Z"/>
      <path class="cls-45" d="M876.89,559.76l-6.13,.93c-1.58,.24-2.87-1.39-2.87-3.64v-142.47c0-2.25,1.28-4.43,2.87-4.86l6.13-1.68c1.6-.44,2.91,1.05,2.91,3.32v143.85c0,2.27-1.3,4.31-2.91,4.55Z"/>
      <g>
        <g>
          <path class="cls-40" d="M836.43,538.63c0,1.66-.36,2.55-1.08,2.67-.29,.05-1.33-1.02-3.13-3.2-1.46-1.85-2.76-4.6-3.9-8.24-1.23-3.9-2.29-6.5-3.16-7.8-.31,.13-.48,.82-.53,2.09-.07,1.51-.21,2.52-.43,3.01-.12,.06-.24,.13-.35,.22-1.46,.27-2.58-.43-3.35-2.09-.05-.13-.59-1.89-1.62-5.27-.42-.44-.75-.72-.98-.85-.02-.13-.1-.24-.25-.32,.35-5.58-.02-9.77-1.12-12.56-.07,.01-.16,.02-.28,0-.12,0-.2-.01-.24,0-2.28,.46-3.54,1.36-3.79,2.69-.35,1.76-.52,5.73-.52,11.9,0,.93,.02,1.79,.07,2.57-.16,.38-.38,.59-.66,.64-.99,.19-1.73-.04-2.23-.69-.49-.64-.76-.96-.81-.95-.3,.06-.6,.89-.89,2.49-.57,4.2-1.15,8.39-1.72,12.57-1,6.11-2.36,9.31-4.06,9.6-.45,.08-.68-.07-.68-.45,0-1.71,.05-4.27,.14-7.69,.09-3.42,.14-5.98,.14-7.69v-1.9c1.41-6.59,2.11-11.09,2.11-13.49,0-1.1-.15-1.61-.44-1.56-.27,.05-.66,.26-1.18,.62-.51,.36-.9,.56-1.17,.62-.45,.09-.68,0-.68-.27,0-1.26,1.37-2.72,4.12-4.37v-.77c-.34,.07-.87,.13-1.59,.19-.72,.06-1.25,.13-1.62,.2-.27,.06-.75,.41-1.43,1.06-1.42,.29-2.13-.03-2.13-.95,.02-.14,.03-.28,.03-.42,.36-.72,1.23-1.48,2.61-2.27-.9-.5-1.72-.67-2.44-.52-.54,.11-1.22,.44-2.02,.98-.99,.68-1.65,1.09-1.98,1.22-1.74,.76-2.87,1.2-3.38,1.3l-5.94,1.27-.23-.61c0-.91,.46-1.46,1.39-1.65l2.72-.56,.4-.49c1.98-.41,4.11-1.31,6.39-2.7,2.38-1.11,5.94-3.11,10.69-6.03,.48-.79,.78-1.66,.89-2.61,.02-.31,.16-1.32,.41-3.02,.21-1.38,.31-2.3,.31-2.75v-5c.5-1.14,.81-2.14,.93-2.99-.05-.26-.13-.47-.24-.62,.07-.32,.61-2.05,1.62-5.17,.85-2.68,1.28-4.2,1.28-4.58v-.36l-.1-.39c-.18-.3-.47-.41-.86-.31-.14,.03-.35,.11-.64,.23-.29,.12-.5,.19-.64,.23l-.17-.37c1.52-.29,2.66-1.11,3.42-2.46,.76-1.35,1.12-3.15,1.07-5.38l-.03-1.03c.12-.06,.27-.18,.45-.37l.17-.04c1.07-.26,2.53-.04,4.39,.66,0,.52,.07,1.28,.21,2.26,.14,.99,.21,1.74,.21,2.26-.09,.27-.23,.68-.42,1.24,0,.14-.02,.34-.05,.61s-.05,.45-.05,.56c0,1.39,.09,3.42,.26,6.1,.17,2.68,.26,4.7,.26,6.05,.7,.54,1.84,.75,3.41,.65,.19,.55,.59,.76,1.2,.62,.19-.04,.49-.15,.9-.33,.41-.18,.71-.29,.9-.33,.61-.14,.96,.19,1.03,.98l.07,.09c.02,.62-.26,1-.85,1.13-.45,.1-1.08,0-1.89-.31-.81-.31-1.44-.41-1.89-.31-1.57,.35-2.35,.83-2.35,1.46,0,3.43,.49,5.05,1.47,4.83,.77-.17,1.66-.78,2.68-1.83,1.15-1.19,2.02-1.92,2.58-2.18l.71,.89c-.05,.22-.19,.7-.43,1.45-.19,.6-.28,1.13-.28,1.58-.47,.1-.79,.03-.96-.21-1.34,.29-2.01,1.22-2.01,2.78,0,.87,.29,1.24,.88,1.12,.64-.14,1.59-.58,2.87-1.34,1.28-.76,2.25-1.21,2.92-1.36l1.32-.28c-.45,.8-.77,1.48-.96,2.04-2.23,3.16-3.78,4.83-4.66,5.02-.99,.21-1.31,.24-.96,.09-.21,.08-.42,.45-.64,1.13,.12,.39,.26,.99,.42,1.79,.05,1.42,.32,3.11,.81,5.06,.76,2.39,1.13,3.75,1.13,4.06,0,3,.14,4.93,.43,5.78,.57,1.43,1.4,3.61,2.49,6.55,.62,1.91,1.59,4.76,2.93,8.55,.98,2.7,2.61,4.63,4.89,5.77,.24,.13,.36,.38,.36,.73Zm-33.83-50.85c-.41,.37-.94,.62-1.6,.77-.57,.13-1.02,.09-1.36-.11,0-.24,.11-.38,.34-.43l.68-.15c.61-.14,1.26-.16,1.94-.07Zm3.04-13.7c-.16,.55-.47,.88-.92,.99-.21-.23-.35-.45-.44-.67,0-.24,.09-.38,.27-.42l.75-.18c.18-.04,.3,.05,.34,.28Zm4.34,21.25c0-.1-.02-.22-.07-.35h-.03s-.03,.01-.03,.01c-.07,.05-.1,.16-.1,.33v.1c0,.17,.02,.25,.07,.24h.03c.09-.06,.14-.17,.14-.35Zm.45-2.27v-.36l-.1-.24c-.28,.47-.41,.93-.41,1.38v.36l.14,.02h.03c.23-.06,.35-.44,.35-1.17Zm.86-7.84l-.28-.35-.17,.45,.45-.1Zm4.03,7.98c0-1.97-.29-2.89-.87-2.77l-.35,.08v4.36c.81-.17,1.22-.73,1.22-1.66Zm8.07-27.13c-.14,.07-.62,.41-1.45,1.02-.59,.45-1.06,.72-1.41,.8-.07,.02-.18,.03-.33,.03-.15,0-.28,.01-.37,.04l.53-1.17,2.89-1.05,.14,.33Zm4.93,45.9c0,.25-.26,1.08-.78,2.51-.83-1.3-1.24-2.45-1.24-3.42,0-.7,.21-1.09,.64-1.17,.92-.18,1.39,.51,1.39,2.08Zm1.14-27.27c-.05,.26-.19,.41-.43,.46-.21,.05-1.03-.12-2.46-.51,.36-.32,.68-.52,.96-.58,1-.22,1.64-.01,1.92,.63Zm2.68,.41c-.17,.32-.37,.5-.61,.55l-.14,.03c-.26,.06-.39-.05-.39-.33,0-.42,.14-.66,.43-.73,.38,.13,.62,.28,.72,.47Z"/>
          <path class="cls-40" d="M833.73,521.11c0,.6-.34,1.19-1.01,1.77-.19-.84-.29-1.74-.29-2.68,.86-.16,1.29,.14,1.29,.91Zm27.59-29.8c-1.63,.34-2.78,.99-3.45,1.96-.47,.71-.87,2.37-1.2,4.98-.02,.18-.12,.29-.3,.33s-.44,.05-.8,.03c-.36-.02-.64,0-.84,.04-2.06,.42-3.85,1.84-5.37,4.25-.91,1.43-2.06,3.95-3.46,7.57-.54,1.31-1.32,3.33-2.34,6.04,0,2.37-.3,3.94-.9,4.71-.6,.77-.89,1.45-.89,2.05,0,.96,.13,2.35,.4,4.2,.27,1.84,.4,3.25,.4,4.2,0,2.55-.24,3.87-.73,3.95l-1.24,.22c-2.01,.35-3.25-1.09-3.73-4.31-.17-2.75-.34-5.52-.51-8.31,0-.18-.09-.43-.27-.77-.18-.34-.27-.61-.27-.82,0-.84,.08-1.71,.25-2.58l.11-.6c.36-1.97,.52-4.91,.47-8.81v-.85c.27-.83,.59-2.07,.98-3.74-.1-1.6-.19-3.2-.29-4.81-.19-2.5-.46-3.71-.8-3.64-.17,.04-.42,.16-.76,.37-.34,.21-.59,.33-.76,.37-.12,.03-.24,0-.36-.08,0-.84,.18-1.48,.54-1.91,1.27-1.57,2.56-2.67,3.87-3.3,.17,.99,.25,2.01,.25,3.07,0,.35-.04,.91-.13,1.67-.09,.76-.13,1.32-.13,1.67,0,.32,.13,.64,.4,.98,.27,.33,.4,.66,.4,.98,0,.25-.05,.63-.15,1.14-.1,.51-.15,.9-.15,1.14,0,1.31,.48,1.86,1.45,1.67,.85-.17,2.44-2.21,4.79-6.13,.91-.65,1.57-1,1.98-1.05l.22-.05c2.39-1.45,4-3.16,4.84-5.12l2.79-.59c.72,.92,1.33,1.33,1.83,1.23,.42-.48,1.07-1.16,1.95-2.02,.45-.09,.98-.42,1.58-.98,.2,.21,.3,.76,.3,1.66Zm-19.99-.81c-.07,.33-.38,.58-.91,.72l-.11,.02v-.53l1.02-.22Zm4.5,2.98c-.46,.45-1,.74-1.61,.87l-1.68,.35c-.17,.04-.42,.06-.75,.08s-.58,.06-.75,.13l-.44-.33c.17-.28,.41-.55,.73-.79,.34-.07,.86-.21,1.57-.41,.71-.2,1.23-.34,1.57-.41,.68-.14,1.14,.03,1.36,.51Zm0-6.87l-.26,.48c-.07,.02-.17,.06-.29,.12-.12,.06-.21,.1-.26,.11l-.55,.12c0-.6,.26-.96,.77-1.07l.11-.02c.27-.06,.43,.03,.48,.27Z"/>
          <path class="cls-40" d="M891.42,450.89c0,.81-.26,1.28-.79,1.4l-4.87,1.15-.74,.89c.18,.21,.27,.54,.27,.98v.71c-1.2,.76-2.76,1.36-4.68,1.8-3.51,.82-5.07,1.18-4.68,1.09-2.13,.6-3.77,1.51-4.91,2.72l.27,.59v1.9c0,1.92-.12,4.76-.34,8.5-.31,4.67-.64,7.22-.99,7.66-.51,1.99-.85,4.44-1.03,7.33-.13,2.49-.25,4.95-.38,7.4-.43,5.87-.65,9.4-.65,10.6,0,.43-.09,.81-.27,1.14-.03,.04-.53,5.81-1.52,17.3-.05,.51-.2,1.36-.45,2.54-.25,1.18-.38,2.1-.38,2.75,0,.43,.02,.92,.08,1.45-.3,.67-.9,1.08-1.78,1.23-.18,.03-.44,.06-.79,.09-.35,.03-.62,.05-.79,.08l-.53,.79s-.08,.08-.15,.13h-.08s0-.15,0-.15c-.4-.11-.64-.5-.71-1.17-.1-.92-.2-1.44-.3-1.56-.23-.28-.51-.74-.86-1.35,.17-.28,.36-.66,.56-1.12,.15-1,.3-1.99,.45-2.99,.23-1.15,.66-1.88,1.32-2.18v-.27c0-1.22-.09-2.09-.26-2.59,.55-.68,.83-1.14,.83-1.4,0-.65-.14-1.59-.41-2.84-.28-1.24-.41-2.2-.41-2.89,0-.5,.14-.99,.41-1.46,.28-.47,.41-.97,.41-1.51l-.57-1.72v-.43c.05-.12,.15-.71,.3-1.79,.18-.18,.43-.5,.75-.96-.08-.34-.18-.54-.3-.59-.03-.75,.23-2.94,.75-6.58,.53-3.64,.91-5.64,1.13-6.01l-1.32-.8c.2-.29,.45-.47,.76-.54l.57-.5c.25-.77,.38-1.74,.38-2.89,0-3.5,.55-6.97,1.67-10.43-.18-.9-.27-1.15-.27-.75,0-.58,.13-1.42,.38-2.52,.25-1.1,.38-1.93,.38-2.47,0-.32-.09-.61-.27-.86-.3-.4-.47-.65-.49-.75,0-.58,.09-1.41,.28-2.5,.19-1.09,.28-1.91,.28-2.45,0-.79-.85-1-2.54-.6-2.19,.51-4.37,1.14-6.54,1.89-.35,.37-.69,.59-1.01,.66s-.49-.19-.49-.8c0-1.4,.5-2.32,1.49-2.76-1.47,.06-2.48-.28-3.02-1.01,.32-.9,1.37-1.81,3.13-2.72,1.67-.83,2.51-1.44,2.51-1.83,0-.18-.29-.42-.86-.71,.58-.42,1.01-.67,1.31-.74l5.7-1.36c.38-.09,.89-1.06,1.52-2.91-.61-.94-1.74-1.28-3.38-1.03,1.01-.5,1.81-.8,2.39-.9l.72-.17c.18-.33,.27-.77,.27-1.31,0-.29-.17-.44-.51-.47-.34-.02-.51-.22-.51-.58v-.43c1.06-3.93,1.6-6.3,1.6-7.09,0-.25-.1-.44-.3-.57,0-1.8,.2-2.75,.61-2.85,.63-.16,.95,.68,.95,2.53,0,.25-.01,.46-.04,.61,.99-.25,1.56-.83,1.7-1.76,.14-.92,.43-1.44,.86-1.55,1.15-.29,1.73,1.13,1.73,4.25,0,.76-.15,1.76-.44,3-.29,1.23-.44,1.98-.44,2.23,0,.36,.03,.92,.1,1.66,.06,.75,.1,1.3,.1,1.66l.12-.03c.82-.2,1.42-.47,1.81-.82l.27-.07c.21,.17,.46,.51,.77,1.01-1.03,.61-1.78,1.77-2.27,3.49,.1,.45,.45,.6,1.04,.46l7.08-1.69c.34-.08,.69-.31,1.05-.69,1.25-.3,1.97,.05,2.15,1.03,3.37-.8,4.44-1.09,3.18-.86,1.44-.27,2.43-.06,2.96,.62Zm-29.36,85.71l-1.66,.28c0-1.26,.34-1.94,1.02-2.06,.43-.07,.64,.52,.64,1.78Zm-.08-102.29l-1.32,.34v-1.24l.38-.1c.5-.13,.82,.21,.94,1Zm2.53,21.74l-.19-.23c-.76-.11-1.2-.15-1.32-.12-.75,.18-1.13,.81-1.13,1.89,1.56-.37,2.44-.88,2.64-1.54Zm0,70.99c0-1.33-.35-2.42-1.06-3.27-.03,.54-.2,1.57-.53,3.07-.25,1.3-.38,2.33-.38,3.09,1.31-.23,1.96-1.2,1.96-2.89Zm-.87-6.38c0-.29-.06-.46-.19-.51-.05,.05-.08,.19-.08,.45v.16c0,.25,.03,.39,.08,.42,.13-.1,.19-.27,.19-.52Zm3.49-65.23c-.51-.35-.95-.48-1.33-.39-.35,.08-.59,.38-.72,.87,.13,.22,.28,.31,.45,.27l1.14-.27c.18-.04,.33-.2,.46-.49Z"/>
          <path class="cls-40" d="M876.55,513.89c-.69,.13-1.1,.43-1.23,.89l-.27,.05v-1.09l.58-.11c.44-.08,.75,0,.93,.26Zm1.85-45.62c0,.91-.32,1.44-.97,1.58l-.19,.04c-.54-.24-1.12-.57-1.74-.98l2.89-.65Zm37.22-10.61c-1.18,.15-2.57,1.69-4.17,4.59-.19,.04-.29,.51-.29,1.41-.33,.82-.86,1.42-1.59,1.81-4.32,2.48-7.53,5.48-9.64,8.98l1.12-.24c1.87-.4,3.5-.98,4.87-1.72,1.65-.92,2.35-1.35,2.11-1.3,.73-.16,1.1,.04,1.1,.6,0,.75-2.11,2.21-6.31,4.38-2.62,1.38-5,2.53-7.12,3.46-1.27,1.78-3.29,4.15-6.06,7.08-.94,.71-1.57,1.5-1.89,2.38v2.31c0,.62,.05,1.53,.14,2.73,.09,1.19,.14,2.09,.14,2.67,0,.44-.12,1.02-.37,1.73-.25,.71-.37,1.14-.37,1.29,0,1.95,.84,2.76,2.52,2.43,.68-.13,1.87-.97,3.56-2.52l3.62-3.32c.48-.32,1.2-.92,2.16-1.82,.4-.41,1.04-1.27,1.92-2.56l.16-.03c1.07,.53,1.88,.74,2.41,.63,.43-.09,.92-.31,1.47-.66,.55-.35,.92-.55,1.11-.59,.67-.14,1.01,.95,1.01,3.27,0,.75-.16,1.19-.49,1.33,.73,.16,1.09,.79,1.09,1.91s-.54,2.08-1.62,2.89c-.86,.5-1.72,1-2.58,1.51-1.02,.94-2.39,2.17-4.1,3.68-4.84,.92-8.07,2.28-9.73,4.07,0,1.1,.26,1.74,.79,1.89,.34-.06,.88-.12,1.6-.16,.73-.04,1.27-.1,1.64-.17,0,1-.24,1.54-.71,1.63-.24,.04-.55-.08-.93-.38-.38-.3-.69-.42-.93-.38-.66,.12-.99,.74-.99,1.84,0,1.55,.62,2.2,1.86,1.98,.53-.1,1.26-.43,2.2-1.01,.94-.58,1.66-.92,2.17-1.01,.37-.07,.76-.1,1.16-.1l.32-.73c.03-.56-.77-.69-2.39-.39v-.11c.48-.64,.84-.99,1.07-1.03l7.78-1.45,1.78,.62,5.57-1.04c0,1.31-.27,2.02-.82,2.12-.41,.08-.68,.07-.81-.02-.24,.05-.6,.06-1.06,.05-.46,0-.81,0-1.06,.05,.3-.05,.03,.09-.81,.43,.51,1.14,1.28,1.65,2.31,1.53,.41-.07,.77,.08,1.1,.47-.57,.81-1.71,2.05-3.41,3.7-.76,.81-1.89,2.02-3.39,3.62-.22,.6-.55,1.27-1.01,2.02-.27-.06-.83,.04-1.69,.3-.54,.13-1.16,.34-1.88,.61-4.07,2.64-6.04,3.94-5.93,3.92-.45,.08-1.12,.3-2,.68-.88,.37-1.55,.6-1.99,.68-.31,.24-1,.95-2.04,2.14-1.05,1.19-1.61,1.79-1.69,1.8-1.23,.21-2.19-.17-2.91-1.15-.71-.97-1.23-1.43-1.54-1.38-.34,.06-.83,.33-1.47,.8-.65,.48-1.14,.74-1.47,.8-.46,.08-.7-.06-.7-.43,0-.4,.7-1.08,2.11-2.03s2.12-2.06,2.12-3.3c0-.55-.08-1.31-.23-2.29-.16-.98-.23-1.74-.23-2.29,1.35-2.14,2.02-3.84,2.02-5.09,0-2.16-.81-3.23-2.41-3.23-.52,.02-1.27-.02-2.25-.13-.05,0-.1-.04-.16-.13,0-.73,.64-1.25,1.92-1.56,1.28-.31,1.92-.75,1.92-1.3,0-1.06-.69-1.75-2.08-2.07-1.38-.32-2.07-.92-2.07-1.79,0-.15,.01-.28,.04-.39,.36-.25,.71-.41,1.05-.48,1.21-.24,1.89-.27,2.02-.12,.52-.83,.78-1.65,.78-2.45,0-.62-.26-1.29-.78-2.01-.52-.72-.78-1.44-.78-2.17,0-.47-.02-1.17-.06-2.1-.04-.92-.06-1.62-.06-2.1,0-1.02,.19-1.96,.58-2.8l.19-.2,.12-.3c0-2.01-.84-3.14-2.5-3.4-1.66-.26-2.49-.62-2.49-1.09,0-.73,.22-1.14,.66-1.23,.39,.17,1.09,.03,2.13-.45,.44-.17,.66-.32,.66-.47,0-.11-.01-.27-.04-.48-.03-.21-.04-.39-.04-.54l-2.13,.45c0-1.57,.5-2.94,1.49-4.12,.99-1.18,1.49-2.23,1.49-3.14,0-3.14-.01-4.62-.04-4.43,.21-.56,.48-1.37,.82-2.43,0-.11-.17-.6-.52-1.47-.35-.87-.52-1.62-.52-2.24,0,.29,.09-.31,.27-1.81,.39-.82,1.32-1.4,2.8-1.73l1.17-.27,1.53,2.13c2.09-.47,3.52-.52,4.28-.14-.32,.22-.95,1.06-1.89,2.52-.94,1.46-1.41,2.37-1.41,2.74,0,.55,.52,.71,1.57,.48,.5-.11,1.55-.93,3.15-2.46,1.61-1.54,2.42-2.55,2.42-3.03v-.17l-1.27-.66c.53-1.52,2.11-2.58,4.77-3.18,1.6-.36,2.47-.6,2.62-.7,.15-.11,.79-.77,1.95-2,.83-.86,1.51-1.33,2.05-1.42h.2c.38,.22,.97,.53,1.78,.95,.89-.2,2.21-.41,3.98-.62,1.77-.21,3.1-.42,4-.63l.12-.03c1.17-.9,1.57-1.31,1.19-1.23l.12-.03v1.52Zm-32.45,84.47c-.44,.36-.86,.58-1.25,.64-.44,.07-.76-.02-.97-.28,.21-.66,.7-1.05,1.48-1.18,.52-.09,.77,.18,.74,.81Zm8.4-66.98l-1.14,.25c-.68,.15-1.48,.47-2.4,.96-.18,.3-.28,.9-.28,1.82,0,.99,.26,1.43,.79,1.32l.39-.08c.76-.16,1.64-1.58,2.64-4.27Zm10.96,55.65c-3.61,2.54-6.75,4.28-9.42,5.21l-.28-.4c1.14-.74,2.84-1.87,5.13-3.36,.85-.52,2.13-1.33,3.84-2.44l.72,.99Zm4.2-68.89l-.32-.37c-.08,.02-.21,.03-.38,.03-.18,0-.32,.02-.42,.04-3.65,.82-7.15,2.98-10.5,6.46l1.19-.26c4.74-1.05,8.23-3.02,10.44-5.89Zm-.81,34.67c-.92,.18-2.62,1.4-5.09,3.65-2.47,2.24-4.22,3.44-5.25,3.6l-.2,.04c.34,.38,1.53,.37,3.55-.02,1.2-.23,2.62-1.1,4.25-2.6,1.83-1.7,2.74-3.25,2.74-4.67Zm-6.4-20.93v-.56c-.4,.09-.83,.36-1.28,.83l1.28-.28Zm.72,37.35c-.03-.07-.09-.09-.2-.07l-1,.19c-.08,.01-.12,.04-.12,.08v.06c0,.26,.19,.35,.56,.29l.12-.02c.29-.05,.51-.22,.64-.51Z"/>
        </g>
        <g>
          <path class="cls-47" d="M833.84,539.2c0,1.65-.36,2.54-1.08,2.66-.29,.05-1.33-1.02-3.11-3.2-1.45-1.85-2.74-4.59-3.88-8.22-1.23-3.89-2.28-6.48-3.15-7.78-.31,.13-.48,.82-.53,2.08-.07,1.51-.21,2.51-.42,3-.12,.06-.24,.13-.35,.22-1.45,.27-2.56-.43-3.33-2.09-.05-.13-.58-1.88-1.61-5.26-.42-.44-.75-.72-.98-.85-.02-.13-.1-.24-.24-.32,.35-5.57-.02-9.75-1.11-12.54-.07,.01-.16,.02-.28,0-.12-.01-.2-.01-.24,0-2.27,.46-3.52,1.36-3.77,2.68-.35,1.76-.52,5.72-.52,11.88,0,.93,.02,1.79,.07,2.57-.16,.37-.38,.59-.65,.64-.99,.19-1.73-.04-2.22-.69-.49-.64-.76-.96-.81-.95-.3,.06-.59,.89-.89,2.49-.57,4.19-1.14,8.37-1.71,12.55-1,6.1-2.35,9.29-4.05,9.58-.45,.08-.68-.07-.68-.45,0-1.7,.04-4.26,.14-7.67,.09-3.41,.14-5.97,.14-7.67v-1.89c1.4-6.58,2.1-11.07,2.1-13.46,0-1.09-.15-1.61-.44-1.55-.27,.05-.66,.26-1.17,.62-.51,.36-.9,.56-1.17,.62-.45,.09-.68,0-.68-.27,0-1.26,1.36-2.71,4.1-4.36v-.77c-.34,.07-.87,.13-1.58,.19-.71,.06-1.25,.13-1.61,.2-.27,.05-.74,.41-1.42,1.05-1.42,.29-2.12-.03-2.12-.95,.02-.14,.03-.28,.03-.41,.36-.72,1.22-1.47,2.6-2.27-.9-.5-1.71-.67-2.43-.52-.54,.11-1.21,.44-2.02,.98-.98,.68-1.64,1.08-1.97,1.22-1.74,.76-2.86,1.19-3.37,1.3l-5.92,1.26-.23-.61c0-.91,.46-1.46,1.38-1.65l2.71-.56,.4-.49c1.97-.41,4.09-1.3,6.36-2.69,2.37-1.11,5.91-3.1,10.65-6.01,.48-.79,.77-1.65,.89-2.6,.02-.31,.16-1.32,.41-3.02,.21-1.38,.31-2.29,.31-2.74v-4.99c.5-1.14,.81-2.14,.92-2.98-.05-.26-.13-.47-.24-.61,.07-.32,.61-2.04,1.61-5.15,.85-2.67,1.27-4.19,1.27-4.57v-.36l-.1-.39c-.18-.3-.47-.41-.86-.31-.14,.03-.35,.11-.64,.23-.29,.12-.5,.19-.63,.23l-.17-.37c1.51-.28,2.65-1.1,3.4-2.45,.76-1.35,1.12-3.14,1.07-5.37l-.03-1.02c.11-.06,.26-.18,.45-.37l.17-.04c1.06-.26,2.52-.04,4.37,.66,0,.52,.07,1.27,.21,2.26,.14,.99,.21,1.74,.21,2.26-.09,.26-.23,.68-.42,1.24,0,.14-.02,.34-.05,.61-.04,.27-.05,.45-.05,.56,0,1.38,.09,3.41,.26,6.09,.17,2.68,.26,4.69,.26,6.04,.7,.54,1.83,.75,3.39,.65,.19,.55,.58,.76,1.19,.62,.19-.04,.49-.15,.9-.33,.41-.18,.71-.29,.9-.33,.61-.14,.95,.19,1.02,.97l.07,.09c.02,.62-.26,1-.85,1.13-.45,.1-1.07,0-1.88-.32-.81-.31-1.43-.41-1.88-.31-1.56,.35-2.34,.83-2.34,1.45,0,3.43,.49,5.04,1.47,4.82,.77-.17,1.66-.77,2.66-1.83,1.15-1.19,2.01-1.91,2.57-2.18l.71,.89c-.05,.22-.19,.7-.42,1.45-.19,.6-.28,1.12-.28,1.58-.47,.1-.79,.03-.95-.21-1.34,.29-2.01,1.21-2.01,2.78,0,.87,.29,1.24,.88,1.12,.63-.13,1.58-.58,2.86-1.34,1.27-.76,2.24-1.21,2.91-1.35l1.31-.28c-.45,.8-.77,1.47-.96,2.04-2.22,3.16-3.77,4.82-4.64,5-.99,.21-1.3,.24-.95,.09-.21,.08-.42,.45-.63,1.12,.12,.39,.26,.99,.42,1.79,.05,1.42,.32,3.1,.81,5.05,.75,2.39,1.13,3.74,1.13,4.05,0,3,.14,4.92,.42,5.77,.57,1.42,1.39,3.6,2.48,6.54,.62,1.91,1.59,4.75,2.92,8.53,.97,2.7,2.6,4.62,4.87,5.76,.24,.13,.36,.38,.36,.73Zm-33.69-50.76c-.41,.36-.94,.62-1.59,.76-.56,.13-1.02,.09-1.35-.11,0-.24,.11-.38,.34-.43l.68-.15c.61-.14,1.25-.16,1.93-.07Zm3.03-13.67c-.16,.55-.47,.88-.92,.99-.2-.23-.35-.45-.44-.67,0-.24,.09-.38,.27-.42l.75-.18c.18-.04,.3,.05,.34,.28Zm4.32,21.21c0-.1-.02-.22-.07-.35h-.03s-.03,.01-.03,.01c-.07,.05-.1,.16-.1,.33v.1c0,.17,.02,.25,.07,.24h.03c.09-.06,.14-.17,.14-.35Zm.45-2.26v-.36l-.1-.24c-.27,.47-.41,.93-.41,1.38v.36l.14,.02h.03c.23-.06,.34-.44,.34-1.16Zm.86-7.83l-.28-.35-.17,.45,.45-.1Zm4.01,7.96c0-1.97-.29-2.89-.87-2.76l-.35,.08v4.35c.81-.17,1.21-.73,1.21-1.66Zm8.04-27.07c-.14,.07-.62,.41-1.44,1.02-.58,.45-1.05,.72-1.4,.8-.07,.02-.18,.03-.33,.03-.15,0-.27,.01-.37,.03l.52-1.16,2.88-1.05,.14,.33Zm4.91,45.8c0,.24-.26,1.08-.78,2.51-.83-1.3-1.24-2.44-1.24-3.42,0-.7,.21-1.09,.64-1.17,.92-.18,1.38,.51,1.38,2.08Zm1.14-27.22c-.05,.26-.19,.41-.43,.46-.21,.05-1.03-.12-2.45-.51,.35-.32,.67-.51,.96-.58,.99-.22,1.63-.01,1.92,.62Zm2.67,.41c-.17,.32-.37,.5-.61,.55l-.14,.03c-.26,.06-.39-.05-.39-.33,0-.42,.14-.66,.43-.72,.38,.13,.62,.28,.71,.47Z"/>
          <path class="cls-47" d="M831.16,521.71c0,.6-.33,1.19-1,1.77-.19-.84-.29-1.73-.29-2.68,.86-.16,1.29,.14,1.29,.91Zm27.47-29.72c-1.62,.34-2.77,.99-3.44,1.95-.47,.71-.87,2.36-1.19,4.96-.02,.18-.12,.29-.3,.33s-.44,.05-.8,.03c-.36-.02-.64,0-.83,.04-2.05,.42-3.83,1.83-5.35,4.23-.91,1.43-2.05,3.94-3.44,7.55-.54,1.31-1.31,3.32-2.33,6.02,0,2.37-.3,3.94-.89,4.7-.59,.76-.89,1.45-.89,2.05,0,.95,.13,2.35,.4,4.19,.27,1.84,.4,3.24,.4,4.19,0,2.54-.24,3.86-.73,3.94l-1.23,.22c-2,.35-3.24-1.08-3.72-4.3-.17-2.75-.34-5.51-.5-8.29,0-.18-.09-.43-.27-.77-.18-.34-.27-.61-.27-.82,0-.84,.08-1.7,.25-2.58l.11-.6c.36-1.97,.52-4.9,.47-8.79v-.84c.26-.83,.59-2.07,.97-3.73-.1-1.6-.19-3.2-.29-4.8-.19-2.49-.46-3.7-.79-3.63-.17,.04-.42,.16-.75,.37-.34,.21-.59,.33-.75,.37-.12,.02-.24,0-.36-.08,0-.84,.18-1.48,.54-1.9,1.27-1.57,2.55-2.66,3.85-3.29,.17,.99,.25,2.01,.25,3.06,0,.35-.04,.91-.13,1.66-.08,.76-.13,1.31-.13,1.66,0,.32,.13,.64,.4,.98,.26,.33,.4,.66,.4,.98,0,.25-.05,.63-.14,1.14-.1,.51-.14,.89-.14,1.14,0,1.3,.48,1.86,1.45,1.66,.85-.17,2.43-2.2,4.77-6.11,.9-.65,1.56-.99,1.98-1.04l.22-.05c2.38-1.45,3.98-3.15,4.82-5.11l2.78-.58c.72,.92,1.33,1.33,1.82,1.23,.42-.48,1.07-1.15,1.94-2.02,.45-.09,.97-.42,1.57-.97,.2,.21,.3,.76,.3,1.66Zm-19.9-.82c-.07,.33-.37,.57-.91,.72l-.11,.02v-.53l1.01-.22Zm4.48,2.98c-.46,.45-1,.74-1.6,.87l-1.67,.35c-.17,.04-.42,.06-.74,.08s-.57,.06-.74,.13l-.44-.33c.17-.28,.41-.54,.73-.79,.34-.07,.86-.21,1.56-.41,.7-.2,1.22-.34,1.56-.41,.68-.14,1.13,.03,1.35,.51Zm0-6.85l-.26,.48c-.07,.02-.17,.06-.29,.12-.12,.06-.21,.1-.26,.11l-.55,.12c0-.6,.26-.96,.77-1.07l.11-.02c.27-.06,.43,.03,.47,.27Z"/>
          <path class="cls-47" d="M888.59,451.68c0,.81-.26,1.27-.79,1.4l-4.85,1.14-.74,.89c.18,.21,.27,.54,.27,.98v.71c-1.19,.75-2.75,1.35-4.66,1.8-3.5,.81-5.04,1.17-4.66,1.08-2.12,.6-3.75,1.51-4.89,2.71l.27,.59v1.9c0,1.92-.11,4.75-.34,8.48-.3,4.66-.63,7.21-.99,7.64-.51,1.99-.85,4.43-1.03,7.31-.13,2.48-.25,4.94-.38,7.39-.43,5.86-.64,9.38-.64,10.57,0,.43-.09,.81-.27,1.13-.03,.04-.53,5.8-1.51,17.26-.05,.51-.2,1.36-.45,2.54-.25,1.18-.38,2.09-.38,2.74,0,.43,.02,.91,.08,1.44-.3,.66-.89,1.07-1.77,1.23-.18,.03-.44,.06-.79,.08-.35,.03-.61,.05-.79,.08l-.53,.79s-.07,.08-.15,.13h-.07s0-.15,0-.15c-.4-.11-.64-.5-.71-1.17-.1-.91-.2-1.44-.3-1.56-.22-.28-.51-.73-.86-1.35,.17-.28,.36-.66,.56-1.12,.15-.99,.3-1.99,.45-2.98,.22-1.15,.66-1.88,1.31-2.18v-.27c0-1.22-.09-2.08-.26-2.59,.55-.68,.83-1.14,.83-1.39,0-.65-.14-1.59-.41-2.83-.28-1.24-.41-2.2-.41-2.88,0-.5,.14-.99,.41-1.45,.27-.46,.41-.97,.41-1.51l-.56-1.72v-.43c.05-.12,.15-.71,.3-1.78,.17-.18,.43-.5,.75-.96-.07-.34-.18-.54-.3-.59-.02-.75,.23-2.93,.75-6.56,.53-3.63,.9-5.63,1.13-6l-1.32-.8c.2-.29,.45-.47,.75-.53l.56-.5c.25-.77,.38-1.73,.38-2.88,0-3.49,.55-6.95,1.66-10.4-.18-.9-.26-1.15-.26-.75,0-.58,.13-1.41,.38-2.51,.25-1.1,.38-1.92,.38-2.46,0-.32-.09-.61-.26-.86-.3-.4-.47-.65-.49-.75,0-.58,.09-1.41,.28-2.5,.19-1.09,.28-1.9,.28-2.44,0-.79-.84-.99-2.53-.61-2.18,.5-4.35,1.13-6.51,1.88-.35,.37-.68,.59-1,.66s-.48-.19-.48-.8c0-1.39,.5-2.31,1.49-2.76-1.46,.06-2.47-.28-3.01-1.01,.32-.9,1.36-1.8,3.12-2.72,1.67-.82,2.5-1.43,2.5-1.83,0-.18-.29-.42-.86-.71,.57-.42,1.01-.67,1.31-.74l5.68-1.35c.38-.09,.88-1.06,1.51-2.9-.61-.94-1.73-1.28-3.36-1.03,1-.49,1.8-.79,2.38-.9l.72-.17c.18-.33,.27-.76,.27-1.3,0-.29-.17-.44-.51-.47-.34-.02-.51-.22-.51-.58v-.43c1.06-3.92,1.59-6.28,1.59-7.07,0-.25-.1-.44-.3-.57,0-1.8,.2-2.75,.61-2.85,.63-.16,.95,.68,.95,2.52,0,.25-.01,.46-.04,.61,.99-.25,1.55-.83,1.69-1.75,.14-.92,.43-1.44,.86-1.55,1.15-.29,1.72,1.13,1.72,4.24,0,.76-.15,1.76-.44,2.99-.29,1.23-.44,1.97-.44,2.23,0,.36,.03,.92,.1,1.66,.06,.75,.1,1.3,.1,1.66l.11-.03c.82-.2,1.42-.47,1.8-.82l.27-.06c.2,.17,.46,.51,.77,1.01-1.02,.61-1.78,1.77-2.26,3.48,.1,.45,.45,.6,1.03,.46l7.05-1.68c.34-.08,.68-.31,1.05-.69,1.24-.3,1.96,.05,2.14,1.03,3.36-.8,4.42-1.08,3.16-.86,1.44-.27,2.42-.06,2.94,.63Zm-29.23,85.51l-1.65,.28c0-1.26,.34-1.94,1.01-2.06,.42-.07,.64,.52,.64,1.77Zm-.07-102.06l-1.31,.33v-1.24l.37-.1c.5-.13,.81,.21,.94,1Zm2.52,21.69l-.19-.22c-.75-.11-1.19-.15-1.32-.12-.75,.18-1.13,.81-1.13,1.88,1.55-.37,2.43-.88,2.63-1.54Zm0,70.83c0-1.33-.35-2.42-1.05-3.26-.03,.54-.2,1.56-.53,3.06-.25,1.3-.38,2.33-.38,3.08,1.3-.23,1.96-1.19,1.96-2.88Zm-.87-6.37c0-.29-.06-.46-.19-.5-.05,.05-.08,.19-.08,.44v.16c0,.25,.03,.39,.08,.42,.13-.09,.19-.27,.19-.52Zm3.47-65.08c-.5-.35-.94-.48-1.32-.39-.35,.08-.59,.38-.72,.87,.13,.22,.28,.31,.45,.27l1.13-.27c.18-.04,.33-.2,.45-.49Z"/>
          <path class="cls-47" d="M873.79,514.53c-.69,.13-1.1,.42-1.23,.88l-.27,.05v-1.09l.57-.11c.44-.08,.74,0,.92,.26Zm1.85-45.52c0,.91-.32,1.44-.96,1.58l-.19,.04c-.54-.24-1.11-.57-1.73-.97l2.88-.65Zm37.05-10.57c-1.17,.15-2.56,1.68-4.15,4.58-.19,.04-.28,.51-.28,1.41-.32,.82-.85,1.42-1.58,1.81-4.3,2.48-7.5,5.46-9.6,8.95l1.12-.24c1.87-.4,3.48-.97,4.85-1.72,1.64-.91,2.34-1.34,2.1-1.29,.73-.16,1.09,.04,1.09,.6,0,.75-2.1,2.2-6.28,4.36-2.61,1.37-4.97,2.52-7.09,3.45-1.27,1.78-3.28,4.14-6.03,7.06-.94,.71-1.57,1.5-1.88,2.37v2.31c0,.62,.05,1.53,.14,2.72,.09,1.19,.14,2.08,.14,2.67,0,.44-.12,1.01-.37,1.72-.25,.71-.37,1.14-.37,1.28,0,1.94,.83,2.75,2.51,2.42,.68-.13,1.86-.97,3.54-2.51l3.6-3.31c.48-.32,1.19-.92,2.15-1.81,.4-.41,1.04-1.26,1.91-2.55l.16-.03c1.07,.53,1.87,.74,2.4,.63,.43-.09,.92-.3,1.47-.66,.55-.35,.92-.55,1.11-.59,.67-.14,1.01,.95,1.01,3.26,0,.75-.16,1.19-.48,1.32,.73,.16,1.09,.79,1.09,1.91s-.54,2.08-1.61,2.88c-.86,.5-1.72,1-2.57,1.5-1.02,.94-2.37,2.16-4.08,3.67-4.82,.92-8.04,2.27-9.69,4.05,0,1.1,.26,1.73,.78,1.89,.34-.06,.87-.12,1.59-.16,.72-.04,1.27-.1,1.64-.17,0,.99-.24,1.54-.71,1.62-.24,.04-.55-.08-.93-.38-.38-.3-.69-.42-.92-.38-.66,.12-.98,.73-.98,1.84,0,1.54,.61,2.2,1.85,1.97,.52-.1,1.25-.43,2.19-1.01,.94-.58,1.66-.91,2.16-1.01,.37-.07,.75-.1,1.15-.1l.32-.72c.03-.56-.77-.69-2.38-.39v-.11c.48-.64,.83-.98,1.07-1.03l7.74-1.44,1.77,.62,5.54-1.03c0,1.31-.27,2.01-.81,2.11-.41,.07-.68,.07-.81-.02-.24,.04-.59,.06-1.05,.05-.46,0-.81,0-1.05,.05,.3-.05,.03,.09-.81,.43,.51,1.13,1.28,1.65,2.3,1.53,.4-.07,.77,.08,1.09,.47-.57,.81-1.7,2.04-3.4,3.69-.75,.8-1.88,2.01-3.38,3.61-.21,.59-.55,1.27-1,2.01-.27-.06-.83,.03-1.68,.3-.53,.13-1.16,.33-1.87,.61-4.05,2.63-6.01,3.93-5.91,3.91-.45,.08-1.11,.3-1.99,.68-.88,.37-1.54,.6-1.98,.67-.31,.24-.99,.95-2.04,2.14-1.04,1.19-1.6,1.78-1.68,1.8-1.22,.21-2.18-.18-2.9-1.15-.71-.97-1.22-1.43-1.53-1.38-.34,.06-.83,.33-1.47,.8-.64,.48-1.13,.74-1.46,.8-.46,.08-.69-.06-.69-.43,0-.4,.7-1.08,2.1-2.03s2.11-2.05,2.11-3.29c0-.55-.08-1.31-.23-2.28-.15-.97-.23-1.74-.23-2.28,1.34-2.14,2.02-3.83,2.02-5.07,0-2.15-.8-3.23-2.4-3.22-.52,.02-1.26-.02-2.24-.13-.05,0-.1-.04-.15-.13,0-.73,.64-1.25,1.91-1.56,1.28-.31,1.92-.74,1.92-1.29,0-1.06-.69-1.75-2.07-2.07-1.38-.32-2.06-.92-2.06-1.79,0-.14,.01-.28,.04-.39,.36-.25,.71-.41,1.04-.47,1.21-.23,1.88-.27,2.01-.12,.52-.83,.77-1.64,.77-2.45,0-.62-.26-1.29-.77-2.01-.52-.72-.77-1.44-.77-2.17,0-.47-.02-1.17-.06-2.09-.04-.92-.06-1.62-.06-2.09,0-1.02,.19-1.95,.58-2.8l.19-.2,.12-.3c0-2-.83-3.14-2.49-3.39-1.66-.26-2.48-.62-2.48-1.09,0-.73,.22-1.14,.65-1.23,.38,.17,1.09,.03,2.12-.44,.44-.16,.66-.32,.66-.47,0-.11-.01-.27-.04-.48-.03-.21-.04-.39-.04-.54l-2.12,.45c0-1.56,.49-2.93,1.48-4.11,.99-1.18,1.49-2.22,1.49-3.13,0-3.13-.01-4.61-.04-4.42,.21-.55,.48-1.36,.81-2.42,0-.11-.17-.6-.52-1.47-.35-.87-.52-1.61-.52-2.23,0,.29,.09-.31,.27-1.81,.39-.82,1.32-1.39,2.79-1.73l1.17-.26,1.52,2.13c2.08-.47,3.51-.51,4.26-.13-.31,.22-.94,1.06-1.88,2.51-.94,1.46-1.41,2.37-1.41,2.73,0,.55,.52,.71,1.56,.48,.5-.11,1.54-.93,3.14-2.46,1.6-1.53,2.4-2.54,2.4-3.02v-.17l-1.26-.66c.53-1.52,2.11-2.57,4.75-3.17,1.59-.36,2.46-.59,2.61-.7,.15-.11,.79-.77,1.94-2,.83-.86,1.51-1.33,2.04-1.41h.2c.37,.22,.96,.53,1.77,.95,.89-.2,2.2-.41,3.96-.62,1.76-.21,3.09-.42,3.98-.62l.12-.03c1.17-.9,1.56-1.31,1.18-1.22l.12-.03v1.52Zm-32.3,84.26c-.44,.36-.85,.58-1.24,.64-.44,.07-.76-.02-.97-.28,.21-.65,.7-1.04,1.47-1.17,.52-.09,.76,.18,.74,.81Zm8.36-66.82l-1.14,.25c-.68,.15-1.48,.47-2.39,.96-.18,.3-.27,.9-.27,1.82,0,.99,.26,1.43,.78,1.32l.39-.08c.76-.16,1.63-1.58,2.63-4.26Zm10.91,55.53c-3.59,2.54-6.72,4.26-9.38,5.19l-.28-.4c1.13-.74,2.83-1.86,5.11-3.35,.85-.51,2.12-1.32,3.83-2.43l.72,.99Zm4.18-68.73l-.32-.37c-.08,.02-.21,.03-.38,.03-.17,0-.32,.01-.42,.04-3.64,.82-7.12,2.97-10.45,6.44l1.19-.26c4.72-1.05,8.19-3,10.39-5.87Zm-.81,34.59c-.91,.18-2.6,1.4-5.07,3.64-2.46,2.24-4.2,3.43-5.23,3.59l-.2,.04c.34,.38,1.52,.37,3.53-.02,1.19-.23,2.61-1.09,4.23-2.6,1.82-1.69,2.73-3.24,2.73-4.66Zm-6.37-20.88v-.55c-.4,.09-.82,.36-1.27,.83l1.27-.27Zm.72,37.26c-.03-.07-.09-.09-.2-.07l-1,.18c-.08,.01-.12,.04-.12,.08v.06c0,.26,.19,.35,.56,.28l.12-.02c.29-.05,.5-.22,.64-.51Z"/>
        </g>
      </g>
      <g>
        <path class="cls-40" d="M818.3,373.38c-.35,.11-.62,.06-.81-.16-.19-.22-.28-.6-.28-1.13v-10.8c0-.53,.09-.97,.28-1.31,.19-.34,.46-.57,.81-.68l2.63-.86c1.62-.53,2.89-.34,3.78,.6,.9,.93,1.35,2.53,1.35,4.8,0,1.13-.12,2.17-.35,3.13-.23,.96-.57,1.81-1.01,2.55-.44,.74-.97,1.37-1.6,1.88-.63,.51-1.35,.9-2.17,1.16l-2.63,.83Zm1-2.85l1.5-.48c.51-.16,.96-.4,1.35-.72,.38-.32,.7-.7,.96-1.15,.25-.45,.44-.98,.57-1.59s.19-1.3,.19-2.06c0-1.53-.25-2.58-.76-3.15s-1.27-.7-2.3-.36l-1.5,.49v9.02Z"/>
        <path class="cls-40" d="M828.75,370.23c-.34,.11-.6,.05-.78-.17-.18-.22-.27-.58-.27-1.09v-11.34c0-.52,.09-.95,.27-1.28s.44-.55,.78-.66,.61-.07,.79,.14,.27,.58,.27,1.1v11.36c0,.51-.09,.93-.27,1.27-.18,.33-.45,.55-.8,.67Z"/>
        <path class="cls-40" d="M835.25,368.21c-.39,.12-.78,.21-1.19,.25-.41,.05-.78,.05-1.14,0s-.67-.15-.96-.3c-.21-.09-.36-.26-.44-.5-.08-.24-.11-.49-.08-.77,.03-.28,.09-.54,.2-.78,.11-.24,.25-.42,.43-.54s.38-.13,.59-.04c.39,.17,.8,.26,1.25,.27,.45,0,.89-.06,1.33-.2,.66-.21,1.15-.51,1.44-.91,.3-.39,.44-.82,.44-1.28,0-.41-.1-.69-.31-.84-.21-.16-.57-.23-1.07-.21l-1.56,.02c-.88,0-1.54-.26-1.96-.78-.42-.52-.63-1.31-.63-2.37,0-.67,.09-1.32,.28-1.94,.19-.62,.45-1.19,.8-1.7,.34-.51,.76-.95,1.25-1.32,.49-.37,1.03-.65,1.62-.85,.51-.17,1.01-.24,1.51-.23,.5,.01,.94,.13,1.33,.35,.18,.1,.3,.27,.37,.49,.07,.22,.09,.47,.07,.74s-.09,.52-.21,.74c-.12,.22-.26,.39-.44,.5-.18,.11-.39,.12-.64,.03-.3-.13-.62-.19-.96-.18-.35,.01-.7,.08-1.06,.19-.39,.13-.72,.31-.99,.55-.27,.24-.48,.51-.61,.82-.14,.31-.21,.64-.21,1.01s.09,.66,.28,.84c.19,.18,.52,.27,1,.26l1.55-.02c.92-.01,1.6,.22,2.05,.71,.45,.49,.68,1.24,.68,2.27,0,.68-.1,1.32-.29,1.93-.2,.61-.47,1.16-.81,1.66-.35,.5-.76,.93-1.25,1.29-.49,.36-1.04,.64-1.66,.84Z"/>
        <path class="cls-40" d="M844.09,365.38c-.35,.11-.61,.05-.8-.17-.19-.22-.28-.59-.28-1.1v-10.32l-2.46,.8c-.3,.1-.53,.06-.68-.12-.16-.18-.24-.48-.24-.9s.08-.75,.24-1.02c.16-.28,.39-.46,.68-.56l7.14-2.34c.29-.1,.52-.06,.68,.12,.16,.17,.24,.46,.24,.87s-.08,.78-.24,1.06c-.16,.28-.39,.47-.68,.57l-2.5,.81v10.34c0,.52-.09,.95-.27,1.28-.18,.34-.46,.56-.82,.68Z"/>
        <path class="cls-40" d="M850.65,363.3c-.35,.11-.62,.06-.81-.16-.19-.22-.28-.59-.28-1.11v-11.38c0-.53,.1-.97,.29-1.31,.19-.34,.47-.56,.82-.68l3.48-1.14c1.11-.37,1.98-.26,2.6,.32s.93,1.58,.93,2.98c0,.91-.14,1.74-.42,2.49-.28,.75-.68,1.39-1.2,1.91-.53,.53-1.16,.91-1.9,1.15l.13-.37,.57-.18c.4-.13,.75-.1,1.05,.07s.56,.52,.77,1.03l.9,2.11c.14,.3,.21,.61,.19,.94-.01,.33-.1,.62-.27,.87s-.4,.43-.72,.53-.57,.09-.77-.04-.37-.36-.52-.71l-1.39-3.18c-.13-.35-.3-.56-.51-.63-.2-.06-.46-.05-.76,.05l-1.07,.34v4.13c0,.52-.09,.95-.28,1.29-.18,.34-.46,.57-.83,.68Zm1.11-8.43l1.99-.64c.58-.19,1.02-.5,1.32-.94,.3-.44,.45-1,.45-1.69s-.15-1.13-.45-1.38c-.3-.25-.74-.27-1.32-.08l-1.99,.65v4.09Z"/>
        <path class="cls-40" d="M860.61,360.15c-.36,.11-.63,.06-.82-.16-.19-.22-.29-.59-.29-1.12v-11.64c0-.54,.1-.98,.29-1.31s.47-.57,.82-.68,.64-.07,.84,.14,.29,.59,.29,1.13v11.66c0,.53-.09,.96-.28,1.3-.19,.34-.47,.57-.84,.69Z"/>
        <path class="cls-40" d="M867.36,358.02c-.36,.11-.64,.06-.83-.16-.19-.22-.29-.6-.29-1.12v-10.52l-2.56,.83c-.31,.1-.55,.06-.71-.12-.16-.18-.25-.49-.25-.91s.08-.76,.25-1.04c.16-.28,.4-.47,.71-.58l7.41-2.43c.3-.1,.54-.06,.71,.11,.17,.18,.25,.47,.25,.89s-.08,.79-.25,1.08c-.17,.29-.4,.49-.71,.59l-2.59,.85v10.54c0,.53-.09,.96-.28,1.31-.19,.34-.48,.58-.85,.7Z"/>
        <path class="cls-40" d="M877.87,354.74c-1.02,.32-1.92,.29-2.7-.09-.78-.38-1.39-1.07-1.81-2.08-.42-1.01-.63-2.27-.63-3.79,0-1.14,.12-2.22,.36-3.23,.24-1.01,.59-1.93,1.04-2.74,.45-.82,1-1.51,1.63-2.06,.64-.56,1.34-.96,2.11-1.22,1.04-.34,1.95-.33,2.73,.04,.78,.37,1.39,1.05,1.82,2.06,.43,1,.65,2.27,.65,3.8,0,1.17-.12,2.26-.37,3.28-.24,1.02-.6,1.94-1.06,2.77-.46,.83-1.01,1.52-1.65,2.07-.64,.55-1.34,.95-2.13,1.2Zm0-2.75c.58-.19,1.08-.54,1.49-1.06,.41-.52,.73-1.19,.95-1.99,.22-.8,.34-1.71,.34-2.72,0-1.54-.25-2.66-.74-3.35-.49-.69-1.17-.89-2.04-.6-.57,.19-1.07,.54-1.48,1.05-.41,.51-.73,1.16-.95,1.95-.22,.79-.33,1.7-.33,2.73,0,1.52,.24,2.63,.73,3.34s1.16,.92,2.02,.64Z"/>
      </g>
      <path class="cls-43" d="M856.31,392.23c0,3.29-1.01,6.25-2.25,6.61s-2.24-2.02-2.24-5.3,1-6.24,2.24-6.61,2.25,2.01,2.25,5.3Z"/>
      <path class="cls-43" d="M869.34,382.4c0,5.09-1.57,9.67-3.5,10.23s-3.48-3.1-3.48-8.16,1.56-9.64,3.48-10.22,3.5,3.06,3.5,8.15Z"/>
      <path class="cls-43" d="M809.51,386.59c0,1.31-1.95,2.97-4.34,3.71s-4.31,.26-4.31-1.04,1.93-2.96,4.31-3.7,4.34-.28,4.34,1.03Z"/>
      <path class="cls-43" d="M803.4,404.14c0,1.58-.46,2.99-1.03,3.15s-1.03-.98-1.03-2.55,.46-2.98,1.03-3.15,1.03,.97,1.03,2.55Z"/>
      <path class="cls-43" d="M826.39,414.23c0,5.92-1.76,11.2-3.93,11.78s-3.9-3.71-3.9-9.59,1.74-11.15,3.9-11.78,3.93,3.66,3.93,9.58Z"/>
      <polygon class="cls-25" points="913.67 594.94 786.03 610.14 786.03 554.89 913.67 533.55 913.67 594.94"/>
    </g>
  </g>
  <path class="cls-39" d="M937.05,488.61c-42.92-20.42-58.14-34.97-95.28-64.58,9.38-16.63,19.14-33.05,29.27-49.23,9.64-15.39,19.62-30.56,29.9-45.52,3.65-5.32-5.01-10.32-8.63-5.05-20.81,30.28-40.31,61.46-58.42,93.42-8.12-6.7-16.09-13.59-23.87-20.71-12.82-11.74-25.13-24.03-36.93-36.79-4.38-4.74-11.44,2.35-7.07,7.07,19.58,21.17,40.63,40.96,62.91,59.25-11.46,20.61-22.34,41.55-32.62,62.78-7.91,16.34-15.46,32.86-22.66,49.52-2.53,5.85,6.08,10.94,8.63,5.05,16.37-37.85,34.58-74.89,54.56-110.96,23.31,18.51,47.91,35.38,73.61,50.39,15.26,8.91,5.6,6.41,21.56,14,5.78,2.75,10.86-5.87,5.05-8.63Z"/>
  <g>
    <g>
      <path class="cls-37" d="M717.29,406.03v106.56s-1.8,11.88,12.96,10.08l177.84-38.52s3.72-.36,9.79-3.09c.04-.02,.09-.04,.13-.06,10-4.54,16.36-14.58,16.36-25.56v-90.81s1.8-14.4-20.16-11.88c-21.96,2.52-178.2,38.52-178.2,38.52,0,0-18.72,2.88-18.72,14.76Z"/>
      <path class="cls-24" d="M782.43,437.05s10.73-19.9,5.9-41.08c0,0,1.53,11.82,12.99,18.51"/>
      <path class="cls-24" d="M851.05,419.13s-18.69-12.72-24.16-33.74c0,0,4.09,11.2-3,22.42"/>
      <path class="cls-9" d="M806.42,425.65s-13.69,21.64-11.39,24.13"/>
      <line class="cls-9" x1="793.06" y1="430.6" x2="807.69" y2="440.58"/>
      <line class="cls-9" x1="834.55" y1="418.78" x2="829.43" y2="435.27"/>
      <line class="cls-9" x1="826.62" y1="423.76" x2="837.68" y2="431.57"/>
      <path class="cls-30" d="M790.62,463.05s29.68-25.54,67.15-16.39"/>
      <path class="cls-30" d="M812.5,451.13l3.28,21.53s2.53,11.42,9.81,9.3,7.05-9.61,7.05-9.61l-.6-15.35"/>
      <path class="cls-20" d="M782.39,445.14s-35.68-.44-44.67,22.42"/>
      <path class="cls-30" d="M785.05,456.01s-13.66,.96-24.96,10.16"/>
      <path class="cls-20" d="M858.23,424.16s19.58-18.33,38.19-19.83"/>
      <path class="cls-30" d="M863.84,434.65s19-13.77,32.63-10.67"/>
      <path class="cls-28" d="M797.08,476.38l-13.96,15.96s3.18-11.97,.02-19.33l-23.27,21.27,10.82-22.29"/>
      <path class="cls-28" d="M857.66,461.59l19.74,7.73s-8.33-9.16-8.93-17.15l30.45,8.15-19.88-14.8"/>
      <line class="cls-18" x1="821.87" y1="450.59" x2="823.55" y2="467.96"/>
      <line class="cls-14" x1="759.41" y1="384.43" x2="882.98" y2="489.59"/>
    </g>
    <g>
      <path class="cls-37" d="M703.78,462.21v106.56s-1.8,11.88,12.96,10.08l177.84-38.52s3.72-.36,9.79-3.09c.04-.02,.09-.04,.13-.06,10-4.54,16.36-14.58,16.36-25.56v-90.81s1.8-14.4-20.16-11.88c-21.96,2.52-178.2,38.52-178.2,38.52,0,0-18.72,2.88-18.72,14.76Z"/>
      <path class="cls-24" d="M768.93,493.22s10.73-19.9,5.9-41.08c0,0,1.53,11.82,12.99,18.51"/>
      <path class="cls-24" d="M837.54,475.31s-18.69-12.72-24.16-33.74c0,0,4.09,11.2-3,22.42"/>
      <path class="cls-9" d="M792.91,481.83s-13.69,21.64-11.39,24.13"/>
      <line class="cls-9" x1="779.55" y1="486.78" x2="794.18" y2="496.76"/>
      <line class="cls-9" x1="821.05" y1="474.96" x2="815.93" y2="491.45"/>
      <line class="cls-9" x1="813.12" y1="479.94" x2="824.17" y2="487.75"/>
      <path class="cls-30" d="M777.11,519.22s29.68-25.54,67.15-16.39"/>
      <path class="cls-30" d="M798.99,507.31l3.28,21.53s2.53,11.42,9.81,9.3c7.28-2.11,7.05-9.61,7.05-9.61l-.6-15.35"/>
      <path class="cls-20" d="M768.89,501.32s-35.68-.44-44.67,22.42"/>
      <path class="cls-30" d="M771.54,512.19s-13.66,.96-24.96,10.16"/>
      <path class="cls-20" d="M844.72,480.34s19.58-18.33,38.19-19.83"/>
      <path class="cls-30" d="M850.33,490.83s19-13.77,32.63-10.67"/>
      <path class="cls-28" d="M783.57,532.55l-13.96,15.96s3.18-11.97,.02-19.33l-23.27,21.27,10.82-22.29"/>
      <path class="cls-28" d="M844.16,517.77l19.74,7.73s-8.33-9.16-8.93-17.15l30.45,8.15-19.88-14.8"/>
      <line class="cls-18" x1="808.37" y1="506.77" x2="810.05" y2="524.14"/>
      <line class="cls-14" x1="745.91" y1="440.61" x2="869.47" y2="545.77"/>
    </g>
  </g>
</svg>